<?xml version="1.0" encoding="UTF-8"?>
<svg id="Layer_1" data-name="Layer 1" xmlns="http://www.w3.org/2000/svg" xmlns:xlink="http://www.w3.org/1999/xlink" viewBox="0 0 388.21 746.23">
  <defs>
    <style>
      .cls-1 {
        fill: #4b915c;
      }

      .cls-2 {
        fill: #f6ca99;
      }

      .cls-3 {
        fill: #e89251;
      }

      .cls-4 {
        fill: #f7d87a;
      }

      .cls-5 {
        fill: #db6e49;
      }

      .cls-6 {
        fill: #ca643e;
      }

      .cls-7 {
        fill: #4c9658;
      }

      .cls-8 {
        fill: #dadddb;
      }

      .cls-9 {
        fill: #70b355;
      }

      .cls-10 {
        fill: #ead699;
      }

      .cls-11 {
        fill: #6bb25d;
      }

      .cls-12 {
        fill: #d8dad8;
      }

      .cls-13 {
        fill: url(#linear-gradient-2);
      }

      .cls-14 {
        fill: #f5d075;
      }

      .cls-15 {
        fill: #fbfcfb;
      }

      .cls-16 {
        fill: #b3cb9d;
      }

      .cls-17 {
        fill: #fcfcfc;
      }

      .cls-18 {
        fill: #fcfdfc;
      }

      .cls-19 {
        fill: #83c27d;
      }

      .cls-20 {
        fill: #1e7661;
      }

      .cls-21 {
        fill: #2e8b62;
      }

      .cls-22 {
        fill: #dedfdf;
      }

      .cls-23 {
        fill: #dfe0df;
      }

      .cls-24 {
        fill: #c72563;
      }

      .cls-25 {
        fill: #e3cd9f;
      }

      .cls-26 {
        fill: #bc2861;
      }

      .cls-27 {
        fill: #a3a0ab;
      }

      .cls-28 {
        fill: #ea9a51;
      }

      .cls-29 {
        fill: #469456;
      }

      .cls-30 {
        fill: #dddedd;
      }

      .cls-31 {
        fill: #e3834a;
      }

      .cls-32 {
        fill: #bdcdaf;
      }

      .cls-33 {
        fill: #dbdbdc;
      }

      .cls-34 {
        fill: #ef508c;
      }

      .cls-35 {
        fill: #f0f0f0;
      }

      .cls-36 {
        fill: #c6e096;
      }

      .cls-37 {
        fill: #539e6f;
      }

      .cls-38 {
        fill: #dddcdd;
      }

      .cls-39 {
        fill: #0e774e;
      }

      .cls-40 {
        fill: #3d8554;
      }

      .cls-41 {
        fill: #d3764a;
      }

      .cls-42 {
        fill: #13724e;
      }

      .cls-43 {
        fill: #058151;
      }

      .cls-44 {
        fill: #f3ca93;
      }

      .cls-45 {
        fill: #0b784a;
      }

      .cls-46 {
        fill: #f9faf9;
      }

      .cls-47 {
        fill: url(#linear-gradient-4);
      }

      .cls-48 {
        fill: #f3f7f5;
      }

      .cls-49 {
        fill: #fafbfa;
      }

      .cls-50 {
        fill: #f0d89e;
      }

      .cls-51 {
        fill: #d76549;
      }

      .cls-52 {
        fill: #a91a51;
      }

      .cls-53 {
        fill: #177263;
      }

      .cls-54 {
        fill: #f6f8f7;
      }

      .cls-55 {
        fill: #bcb5b7;
      }

      .cls-56 {
        fill: #fbfdfc;
      }

      .cls-57 {
        fill: #695663;
      }

      .cls-58 {
        fill: #79af5a;
      }

      .cls-59 {
        fill: #1e945d;
      }

      .cls-60 {
        fill: #8cc58a;
      }

      .cls-61 {
        fill: #e67848;
      }

      .cls-62 {
        fill: #2a1225;
      }

      .cls-63 {
        fill: #fbfbfb;
      }

      .cls-64 {
        fill: #0d605e;
      }

      .cls-65 {
        fill: #f3c16a;
      }

      .cls-66 {
        fill: url(#linear-gradient-3);
      }

      .cls-67 {
        fill: #5ca56f;
      }

      .cls-68 {
        fill: #1d7675;
      }

      .cls-69 {
        fill: #047b50;
      }

      .cls-70 {
        fill: #dcdddc;
      }

      .cls-71 {
        fill: #dadbdb;
      }

      .cls-72 {
        fill: #dddddc;
      }

      .cls-73 {
        fill: #e78e4d;
      }

      .cls-74 {
        fill: #edcf9f;
      }

      .cls-75 {
        fill: #389b65;
      }

      .cls-76 {
        fill: #927e7e;
      }

      .cls-77 {
        fill: #dc6a48;
      }

      .cls-78 {
        fill: #f8faf9;
      }

      .cls-79 {
        fill: #e43e7b;
      }

      .cls-80 {
        fill: #0c6667;
      }

      .cls-81 {
        fill: #f5cd94;
      }

      .cls-82 {
        fill: #d8d8d8;
      }

      .cls-83 {
        fill: #f98db1;
      }

      .cls-84 {
        fill: #268b59;
      }

      .cls-85 {
        fill: #dbdbdb;
      }

      .cls-86 {
        fill: #f7f9f8;
      }

      .cls-87 {
        fill: #b4d580;
      }

      .cls-88 {
        fill: #bd1d60;
      }

      .cls-89 {
        fill: #deddde;
      }

      .cls-90 {
        fill: #8abe6f;
      }

      .cls-91 {
        fill: #da3a6b;
      }

      .cls-92 {
        fill: #d7dcd8;
      }

      .cls-93 {
        fill: #0a5e6d;
      }

      .cls-94 {
        fill: #fc8dae;
      }

      .cls-95 {
        fill: #866f76;
      }

      .cls-96 {
        fill: #f5f8f6;
      }

      .cls-97 {
        fill: #3b945f;
      }

      .cls-98 {
        fill: #dbdcdc;
      }

      .cls-99 {
        fill: #fafcfb;
      }

      .cls-100 {
        fill: #fbfcfc;
      }

      .cls-101 {
        fill: #db3373;
      }

      .cls-102 {
        fill: #ddd;
      }

      .cls-103 {
        fill: #076569;
      }

      .cls-104 {
        fill: #dcdcdb;
      }

      .cls-105 {
        fill: #2c9a5d;
      }

      .cls-106 {
        fill: #815b8c;
      }

      .cls-107 {
        fill: #88b6a4;
      }

      .cls-108 {
        fill: #df3973;
      }

      .cls-109 {
        fill: #dae2c7;
      }

      .cls-110 {
        fill: #d6dcc9;
      }

      .cls-111 {
        fill: #ae2155;
      }

      .cls-112 {
        fill: #fdfdfc;
      }

      .cls-113 {
        fill: #f6d177;
      }

      .cls-114 {
        fill: #fcfcfd;
      }

      .cls-115 {
        fill: #dfdfdf;
      }

      .cls-116 {
        fill: #f2c98a;
      }

      .cls-117 {
        fill: #eee;
      }

      .cls-118 {
        fill: #fafcfc;
      }

      .cls-119 {
        fill: #c6c0bc;
      }

      .cls-120 {
        fill: #f0cb92;
      }

      .cls-121 {
        fill: #e03976;
      }

      .cls-122 {
        fill: #8a7779;
      }

      .cls-123 {
        fill: #dc6e49;
      }

      .cls-124 {
        fill: #dbdcda;
      }

      .cls-125 {
        fill: #aac3a7;
      }

      .cls-126 {
        fill: #dd426f;
      }

      .cls-127 {
        fill: #2c8162;
      }

      .cls-128 {
        fill: #98bbb1;
      }

      .cls-129 {
        fill: #dedede;
      }

      .cls-130 {
        fill: #dadbda;
      }

      .cls-131 {
        fill: #56a26c;
      }

      .cls-132 {
        fill: #d4d7d5;
      }

      .cls-133 {
        fill: #66aa63;
      }

      .cls-134 {
        fill: #328675;
      }

      .cls-135 {
        fill: #f5cd89;
      }

      .cls-136 {
        fill: #206e54;
      }

      .cls-137 {
        fill: #d8d9d8;
      }

      .cls-138 {
        fill: #ad2159;
      }

      .cls-139 {
        fill: #dcdcdc;
      }

      .cls-140 {
        fill: #a41055;
      }

      .cls-141 {
        fill: #fbfbfc;
      }

      .cls-142 {
        fill: #dadada;
      }

      .cls-143 {
        fill: #26945c;
      }

      .cls-144 {
        fill: #72a786;
      }

      .cls-145 {
        fill: #1a5f5f;
      }

      .cls-146 {
        fill: #ad1c52;
      }

      .cls-147 {
        fill: #f6ca9a;
      }

      .cls-148 {
        fill: #e7e7e7;
      }

      .cls-149 {
        fill: #4e9c5f;
      }

      .cls-150 {
        fill: #a8c5ac;
      }

      .cls-151 {
        fill: #fafafa;
      }

      .cls-152 {
        fill: #4b996f;
      }

      .cls-153 {
        fill: #d5d0cd;
      }

      .cls-154 {
        fill: #fdfcfc;
      }

      .cls-155 {
        fill: #3c9c63;
      }

      .cls-156 {
        fill: url(#linear-gradient);
      }

      .cls-157 {
        fill: #fcfbfc;
      }

      .cls-158 {
        fill: #f9fafa;
      }

      .cls-159 {
        fill: #d9d9d9;
      }

      .cls-160 {
        fill: #fcfdfd;
      }

      .cls-161 {
        fill: #fdfdfd;
      }

      .cls-162 {
        fill: #e4d3a0;
      }

      .cls-163 {
        fill: #d7dbd7;
      }

      .cls-164 {
        fill: #cf7450;
      }

      .cls-165 {
        fill: #e9954e;
      }

      .cls-166 {
        fill: #e8ebe8;
      }

      .cls-167 {
        fill: #c3d2a2;
      }

      .cls-168 {
        fill: #d57c50;
      }

      .cls-169 {
        fill: #a41952;
      }

      .cls-170 {
        fill: #e48148;
      }

      .cls-171 {
        fill: #f7faf8;
      }

      .cls-172 {
        fill: #7c656f;
      }
    </style>
    <linearGradient id="linear-gradient" x1="-513.62" y1="1277.79" x2="-46.45" y2="1749.64" gradientTransform="translate(448 -1052)" gradientUnits="userSpaceOnUse">
      <stop offset="0" stop-color="#dcebb0"/>
      <stop offset=".33" stop-color="#80ba68"/>
      <stop offset="1" stop-color="#146f74"/>
    </linearGradient>
    <linearGradient id="linear-gradient-2" x1="-375.96" y1="1121.74" x2="-278.76" y2="1183.2" gradientTransform="translate(448 -1052)" gradientUnits="userSpaceOnUse">
      <stop offset="0" stop-color="#b5a999"/>
      <stop offset="1" stop-color="#806a73"/>
    </linearGradient>
    <linearGradient id="linear-gradient-3" x1="-368.59" y1="1060.07" x2="-260.59" y2="1096.57" gradientTransform="translate(448 -1052)" gradientUnits="userSpaceOnUse">
      <stop offset="0" stop-color="#dc3c6c"/>
      <stop offset="1" stop-color="#aa0e58"/>
    </linearGradient>
    <linearGradient id="linear-gradient-4" x1="-434.95" y1="1398.83" x2="-151.07" y2="1713.77" gradientTransform="translate(448 -1052)" gradientUnits="userSpaceOnUse">
      <stop offset="0" stop-color="#f8cd72"/>
      <stop offset="1" stop-color="#d25246"/>
    </linearGradient>
  </defs>
  <path class="cls-156" d="M86.08,111.18c1.04,1.66,3.79,1,5.49,1.02,11.49.14,23.03-.02,34.51-.02,26.29,0,52.71.43,79,0,8.17-.13,15.98-1.17,24.21-.7,1.7.1,3.2,2.17,2.79-1.3,14.64,14.45,34.15,28.68,50,43,4.1,4.42,8.47,10.47,14,13,23.64,23.66,41.47,46.74,57,76-2.98-.42-1.86.78-1,2.5,2.41,4.83,5.17,9.63,7.54,14.48,1.12,2.29-.89,5.92,3.47,3.02,19.64,42.91,22.77,93.5,24,140-1.77,6.17-1.09,13.97-1.02,20.51.02,1.69-.64,4.45,1.02,5.49-.35,15.73.7,29.35,1,45-1.66,1.04-1,3.79-1.02,5.49-.11,8.5.14,17.03.02,25.51-.07,4.65.08,9.35,0,14-.29,17.92-.82,35.98-1,54-.41,40.66-.46,80.84-2.04,121.46-.36,9.2,1.34,16.23-1.84,24.34-.99,2.52-3.64,10.15-5.06,11.76-5.58,6.32-26.69,4.36-35.06,4.44-98.76,1.02-197.31.4-296,0-8.98-.04-18.07-.18-27,0-15.39-10.89-16.31-14.02-17-33h1c1.24-.1.98-1.49,1.05-2.43,1.2-15.33-.05-33.86-.05-49.57,0-13.48.18-27.02.02-40.51-.02-1.69.64-4.45-1.02-5.49,0-11.65,0-23.35,0-35,0-14.65,0-29.35,0-44v-20c1.66-1.04,1-3.79,1.02-5.49.2-16.49-.02-33.03-.02-49.51s0-32.68,0-49c0-13.49.16-27.02.02-40.51-.02-1.69.64-4.45-1.02-5.49,0-1,0-2,0-3,0-20,1.28-41.41-1-61-.79-6.76-.13-12.07,0-19,.1-5.2-.43-8.42,0-14,.62-8.06,1.23-16.7,2-25,4.82-51.81,21.13-78.04,43-122,1.04,1.66,3.79,1,5.49,1.02,11.16.12,22.36-.02,33.51-.02ZM228.08,171.18c-31.37,2.42-31.3,45.17-27.71,68.21,7.93,50.91,60.49,133.74,112.71,147.79,23.51,6.33,44.15,2.58,49-24,8.7-47.69-17.92-99.55-48-135-11.09-13.07-29.11-32.39-42.33-41.15-12.6-8.35-27.56-20.23-43.67-15.85ZM161.08,223.18c-18.28-32.31-45.63-43.17-82-33.5-5.38,1.43-9.32,3.08-14.12,5.88-7.25,4.23-12.82,8.75-17.19,14.86-18.98,26.58-19.04,61.69-18.71,93.27.02,1.69-.64,4.45,1.02,5.49-.83,17.55,2.74,37.78,1,54-.03.26-.9,1.62-1.07,3.38-1.54,15.58,1.29,33.75.07,49.62-.16,11.97-.06,24.03,0,36,.12,23.32.85,46.65,1,70,.17,25.82-.34,51.69-.02,77.51.02,1.69-.64,4.45,1.02,5.49.1,3.72,1,8.82,1,11.5v15c0,2.22,1.1,9.86,1.63,12.37s1.84,5.08,3.37,7.13c-.93,14.86,15.35,25.04,28.52,26.98,2.38.35,5.07-.2,7.48.02,1.8.16,4.53,1.84,7,1,1.76.43,6.44.91,8.46,1.04,48.83,3.26,97.86-1.41,147.05-2.02,1.69-.02,4.45.64,5.49-1.02,13.58.35,27.04-.86,40.45-1.05,15.89-.22,27.74,4.46,41.55-4.95,5.02-3.42,6.18-6.32,9.52-10.04.77-.85,2.24,0,2.94-.93,7.38-9.9,8.2-39.68,8.54-52.03.22-8.11.12-16.38.02-24.51-.02-1.69.64-4.45-1.02-5.49-.05-1,.03-2,0-3-.4-13.62.54-27.39,0-41l-1.01-61.49c-1.37-14.53-3.89-25-10.99-37.51-4.41-7.77-7.4-10.87-15.06-16.44-2.83-2.06-9.2-4.54-11.03-6.07-.91-.76.31-1.99-.49-2.54-7.71-5.35-23.91-11.71-33.12-16.75-4.18-2.29-12.44-8.62-16.01-10-1.68-.65-3.9-.97-3.29,1.8-.09-.2-2.05-3.64-2.21-3.78-.57-.49-3.18-.38-4.79-1.22l1.51-3.01c-4.77-2.7-7.84-7.15-11.51-10.99,2.97.07,3.13.76,3.04-2.5-.17-6.77-3.3-6.01-6.44-9.6-4.29-4.91-8.18-9.31-12.6-13.9-6.47-10.44-13.37-20.39-19.38-31.12-1.59-2.85-2.57-7.26-4.21-9.79-3.84-5.93-3.37-1.87-5.45-10.38-.75-3.07-6.36-13.51-7.87-17.49-1.48-3.89-.52-8.75-6.08-10.22-.05.99.02,2-.01,3-4.16-4.58-4.36-12.26-6.3-18.2-2.56-7.85-5.67-15.66-9.7-22.8Z"/>
  <path class="cls-106" d="M342.08,734.18c-6.02,2.22-12.68,2.06-19,2.01l-.2,8.8-7.26,1.24-259.56-.53c-2.91-2.3-2.55-6.22-1.98-9.51-2.76.31-5.33-.79-8.01-1v-1c98.69.4,197.24,1.02,296,0Z"/>
  <path class="cls-144" d="M3.08,603.18v98h-1c-1.58-43.61-.01-89.17,0-133h1c0,11.65,0,23.35,0,35Z"/>
  <path class="cls-167" d="M3.08,351.18c-1.66-1.04-1-3.79-1.02-5.49-.14-11.16.02-22.36.02-33.51v-22c2.28,19.59,1,41,1,61Z"/>
  <path class="cls-134" d="M386.08,572.18c.18-18.02.71-36.08,1-54l-1,54Z"/>
  <path class="cls-131" d="M353.08,242.18c3.58,6.76,6.88,13.18,10,20-4.36,2.9-2.35-.73-3.47-3.02-2.37-4.85-5.13-9.64-7.54-14.48-.86-1.73-1.98-2.92,1-2.5Z"/>
  <path class="cls-125" d="M3.08,504.18c0-16.48-.19-33.02-.02-49.51.02-1.69-.64-4.45,1.02-5.49,0,16.48.22,33.02.02,49.51-.02,1.69.64,4.45-1.02,5.49Z"/>
  <path class="cls-32" d="M4.08,400.18c-1.66-1.04-1-3.79-1.02-5.49-.17-13.49.02-27.03.02-40.51,1.66,1.04,1,3.79,1.02,5.49.14,13.5-.02,27.03-.02,40.51Z"/>
  <path class="cls-110" d="M2.08,290.18v22l-2.08-27.52,2.08-13.48c-.13,6.93-.79,12.24,0,19Z"/>
  <path class="cls-150" d="M3.08,568.18h-1c0-12.82-.15-25.68-.02-38.51.02-1.69-.64-4.45,1.02-5.49,0,14.65,0,29.35,0,44Z"/>
  <path class="cls-128" d="M387.08,504.18c.12-8.49-.12-17.01-.02-25.51.02-1.69-.64-4.45,1.02-5.49.16,8.47.11,17.03.02,25.51-.02,1.69.64,4.45-1.02,5.49Z"/>
  <path class="cls-27" d="M46.08,734.18v1c-7.67-.6-17.06-.24-24.61.94-2.03-.05-1.9-1.59-2.39-1.94,8.93-.18,18.02-.04,27,0Z"/>
  <path class="cls-109" d="M2.08,257.18c.86-7.99-2.05-17.85,2-25-.77,8.3-1.38,16.94-2,25Z"/>
  <path class="cls-107" d="M387.08,428.18c-1.66-1.04-1-3.8-1.02-5.49-.07-6.54-.75-14.34,1.02-20.51.23,8.59.19,17.4,0,26Z"/>
  <path class="cls-16" d="M296.08,166.18c-5.53-2.53-9.9-8.58-14-13,4.76,4.3,9.25,8.25,14,13Z"/>
  <path class="cls-59" d="M258.08,189.18c-1.04-.87-8.27-6.76-6.99-7.99,3.77.19,6.46,3.91,9.95,4.62,2.44.5,4.49-.71,6-.14,1.24.47,17.75,14.89,20.05,17,9.09,8.33,16.69,18.88,26.99,25.51,30.08,35.45,56.7,87.31,48,135-6.22-1.47-9.46-7.11-15-9,.17-.35-.06-1.37,0-2,3.99-11.64,1.91-26.46-1.29-38.21-13.7-50.31-48.72-92.09-87.71-124.79Z"/>
  <path class="cls-69" d="M347.08,354.18c5.54,1.89,8.78,7.53,15,9-4.85,26.58-25.49,30.33-49,24,1.87-2.68.74-1.49-.87-2.58-15.82-10.67-28.6-13.91-44.13-28.42,2.22,1.64,5.49-.98,6.29-.82.98.2,1.9,1.83,3.21,1.84,2.31.02,4.95-5.18,7.52,2.97l1.98-2.99c12.06,6.77,40.67,16.91,52.51,7.01.65-.54,7.22-9.44,7.49-10.01Z"/>
  <path class="cls-9" d="M30.08,309.18c-1.66-1.04-1-3.8-1.02-5.49-.33-31.58-.27-66.69,18.71-93.27,4.37-6.12,9.93-10.63,17.19-14.86,4.8-2.8,8.74-4.45,14.12-5.88,36.38-9.67,63.73,1.19,82,33.5l-.99,5.99c-.66-4.99-8.15-11.44-9.45-14.98-.38-1.03.69-2.72.44-2.98-.16-.16-2.95-.25-4.38-1.15-4.51-2.86-5.78-4.99-11.63-7.88-21.75-10.74-46.57-11.47-67,2-16.17,6.08-26.88,23.69-30.35,40.15-2.03,9.63-1.09,18.76-2.69,28.31l2.04,47.54c-2.55-9.09-1.95-18.65-2.01-27.99l-.92,9.39-3.62,1.53c-.93,1.29-.36,4.35-.45,6.08Z"/>
  <path class="cls-103" d="M215.08,673.18c.43,1.53-1.38,3.82,1.47,4.01,4.47.3,9.06-.23,13.53-.02l-1.01-3.48,2.52-.53,2.11,3.9c2.79.35,5.6.05,8.38.12-1.04,1.66-3.79,1-5.49,1.02-49.19.61-98.22,5.28-147.05,2.02-2.02-.13-6.7-.61-8.46-1.04-3.12-.77-4.76-1.95-6-4.99,6.98.13,14.03-.21,21-.01,1.66.05,3.34-.06,5,0,27.27.98,51.58.9,79,0,11.65-.38,23.35-.63,35-1Z"/>
  <path class="cls-45" d="M228.08,171.18c2.96-.23,6.03.16,9,.01.4.26-.94,1.46-1,1.99-30.48-3.34-35.61,28.99-35.05,52.55.99,41.57,37.08,102.44,67.05,130.45,15.53,14.51,28.31,17.75,44.13,28.42,1.61,1.09,2.74-.09.87,2.58-52.22-14.05-104.78-96.88-112.71-147.79-3.59-23.04-3.66-65.79,27.71-68.21Z"/>
  <path class="cls-75" d="M31.08,364.18c2.46.19,2.92-1.22,4.02,1.5,1.84,4.57,2.46,9.79,2.98,14.5,1.05,9.63.86,20.27,1,30,0-.13-.98-1.13-1.04-2.42-.2-4.01.21-8.07.04-12.09-.05-1.23.76-3.71-1-3.49v69.5c0,.36-2.96,3.27-3.99,2.5l-3.01-12c-.06-11.97-.16-24.03,0-36,.23-16.94,1.9-34.73,1-52Z"/>
  <path class="cls-93" d="M322.08,668.18c1.25.77,2.35,1.34,2,3-13.81,9.41-25.66,4.73-41.55,4.95-13.41.19-26.87,1.39-40.45,1.05-2.79-.07-5.6.23-8.38-.12l-2.11-3.9-2.52.53,1.01,3.48c-4.47-.21-9.06.32-13.53.02-2.85-.19-1.04-2.47-1.47-4.01,27.16-.87,55.24-2.84,82.5-3.09,6.69-.06,13.5,3.23,20.79,1.06.9-2.07,2.59-2.1,3.71-2.98Z"/>
  <path class="cls-80" d="M344.08,575.18c.03,1-.05,2,0,3,.37,8.11-.1,16.37-.02,24.51.02,1.69-.64,4.45,1.02,5.49-.34,12.35-1.15,42.13-8.54,52.03-.7.94-2.17.07-2.94.93-3.34,3.72-4.5,6.62-9.52,10.04.35-1.66-.75-2.23-2-3,20.49-16.06,17.4-64.99,17-89,4.51-3.53,2.71-8.99,3.01-13.99l1.99,9.99Z"/>
  <path class="cls-97" d="M39.08,410.18c.94,24.21-.35,50.9-2,75,0,.14-.97,1.08-1.04,2.41-.55,9.69-.36,19.49-1.95,29.1l-2.01,43.49c0-10.82.13-21.68.02-32.51-.02-1.69.64-4.45-1.02-5.49-.15-23.35-.88-46.68-1-70l3.01,12c1.03.78,3.99-2.14,3.99-2.5v-69.5c1.76-.22.95,2.26,1,3.49.17,4.02-.24,8.08-.04,12.09.06,1.29,1.04,2.29,1.04,2.42Z"/>
  <path class="cls-143" d="M228.08,171.18c16.11-4.37,31.07,7.51,43.67,15.85,13.22,8.76,31.24,28.08,42.33,41.15-10.3-6.64-17.9-17.18-26.99-25.51-2.3-2.11-18.82-16.53-20.05-17-1.5-.57-3.56.63-6,.14-3.49-.71-6.19-4.44-9.95-4.62-1.27,1.24,5.96,7.12,6.99,7.99-2.3-1.92-5.32,0-6,0-2.43-.03-5.25-1-6-1l4.99-.99c-4.06.14-9.05-2.45-12.99-2.01-.65.07-1.51-.15-2,0,.31-3.85-.45-8.25,0-12,.06-.53,1.4-1.73,1-1.99-2.97.15-6.04-.24-9-.01Z"/>
  <path class="cls-11" d="M37.08,320.18l1,60c-.51-4.7-1.13-9.93-2.98-14.5-1.1-2.73-1.56-1.31-4.02-1.5v-1c1.74-16.22-1.83-36.45-1-54,.08-1.73-.48-4.78.45-6.08l3.62-1.53.92-9.39c.06,9.35-.54,18.9,2.01,27.99Z"/>
  <path class="cls-21" d="M253.08,385.18c-.61-2.76,1.62-2.44,3.29-1.8,3.57,1.38,11.83,7.71,16.01,10,9.21,5.04,25.41,11.4,33.12,16.75.8.55-.42,1.78.49,2.54,1.82,1.53,8.19,4.01,11.03,6.07,7.66,5.57,10.65,8.67,15.06,16.44l-2,4c-1.69-3.59-2.22-3.53-4-6-10.55-14.61-26.68-22.7-43.55-28.95l-29.45-18.05c-.12-.29.12-.72,0-1Z"/>
  <path class="cls-20" d="M344.08,534.18c0-.13-.98-1.13-1.04-2.42-.25-5.07.9-12.58.05-17.08-.48-2.54-1.78-2.65-4-2.5.18-23.85,1.33-51.08-9-73l2-4c7.1,12.51,9.62,22.98,10.99,37.51l1.01,61.49Z"/>
  <path class="cls-58" d="M135.08,202.18c5.85,2.89,7.12,5.02,11.63,7.88,1.43.9,4.22.99,4.38,1.15.25.26-.82,1.96-.44,2.98,1.3,3.54,8.79,9.99,9.45,14.98l.99-5.99c4.04,7.14,7.14,14.95,9.7,22.8,1.94,5.94,2.14,13.62,6.3,18.2-.03.91-.15,2.22,0,3-6.25,5.78,4.51,16.26,1,23-9.49-23.09-10.98-51.64-26.17-72.33-4.76-6.49-10.73-10.59-16.83-15.67Z"/>
  <path class="cls-53" d="M344.08,534.18c.54,13.61-.4,27.38,0,41l-1.99-9.99c-.3,5,1.5,10.46-3.01,13.99-.03-1.61.6-4.16-1-5,.22-20.68.84-41.45,1-62,2.23-.15,3.53-.04,4,2.5.85,4.51-.3,12.01-.05,17.08.06,1.29,1.04,2.29,1.04,2.42Z"/>
  <path class="cls-60" d="M201.08,319.18c-1.27-2.86-2.02-7.48-4.01-10.49-.88-5,4.89,6.4,5.18,6.87,5.6,8.99,10.44,16.95,17.83,24.63,4.42,4.59,8.31,8.98,12.6,13.9,3.14,3.59,6.27,2.84,6.44,9.6.08,3.26-.07,2.57-3.04,2.5-.66-.69-1.38-1.34-2-2-12.73-13.5-25.32-27.73-33-45Z"/>
  <path class="cls-127" d="M38.08,651.18c.04-.66-.04-1.34.01-1.99,1.02-1.61,2.85,6.45,3.2,6.81.51.52,1.63.04,1.79.18,8.54,7.31,10.36,11.28,22.77,13.73,6.38,1.26,13.1.58,19.23,2.27h-4c-2.96-.21-6.03.14-9,0l2,6c-2.41-.22-5.1.33-7.48-.02-13.17-1.94-29.45-12.13-28.52-26.98Z"/>
  <path class="cls-19" d="M177.08,264.18c.03-1-.04-2.01.01-3,5.56,1.47,4.6,6.33,6.08,10.22,1.52,3.98,7.13,14.42,7.87,17.49,2.08,8.51,1.61,4.45,5.45,10.38,1.64,2.53,2.62,6.94,4.21,9.79,6.01,10.74,12.91,20.69,19.38,31.12-7.39-7.67-12.23-15.63-17.83-24.63-.29-.47-6.06-11.87-5.18-6.87,1.99,3.01,2.74,7.63,4.01,10.49-4.89-9.72-11.52-19.13-16-29-.94-2.07-2.23-4.94-3-7-1.23-3.29-4.39-12.9-5-16-.15-.78-.03-2.09,0-3Z"/>
  <path class="cls-155" d="M221.08,356.18c2.69,2.68,8.21,8.07,11.47,10.04s1.14-.59,1.53-2.04c.62.66,1.34,1.31,2,2,3.67,3.83,6.74,8.29,11.51,10.99l-1.51,3.01c-7.27-3.79-12.72-11.17-20-15-.27-.35-.74-.61-1-1-1.01-1.48-2.72-6.07-4-8Z"/>
  <path class="cls-67" d="M32.08,560.18c0,14.95-.41,30.06,0,45-1.66-1.04-1-3.79-1.02-5.49-.32-25.83.18-51.7.02-77.51,1.66,1.04,1,3.79,1.02,5.49.11,10.83-.02,21.69-.02,32.51Z"/>
  <path class="cls-64" d="M81.08,672.18c.17.01,1.12.96,2.42,1.04,4.05.26,9.32-1.1,12.58.96-6.97-.2-14.02.14-21,.01,1.24,3.04,2.88,4.22,6,4.99-2.47.84-5.2-.84-7-1l-2-6c2.97.14,6.04-.21,9,0Z"/>
  <path class="cls-90" d="M31.08,364.18c.9,17.27-.77,35.06-1,52,1.22-15.86-1.61-34.03-.07-49.62.17-1.77,1.04-3.12,1.07-3.38v1Z"/>
  <path class="cls-152" d="M3.08,701.18v-52h1c0,15.71,1.25,34.24.05,49.57-.07.94.19,2.33-1.05,2.43Z"/>
  <path class="cls-37" d="M4.08,649.18h-1v-46c1.66,1.04,1,3.79,1.02,5.49.17,13.49-.02,27.03-.02,40.51Z"/>
  <path class="cls-68" d="M345.08,608.18c-1.66-1.04-1-3.8-1.02-5.49-.09-8.14.38-16.4.02-24.51,1.66,1.04,1,3.79,1.02,5.49.1,8.13.21,16.4-.02,24.51Z"/>
  <g>
    <path class="cls-13" d="M147.08,87.18c1.04,1.66,3.79,1,5.49,1.02,8.83.11,17.69-.02,26.51-.02l13,1c-1.72,2.81,1.27,5.42.87,7.24-.89,4.12-8.8,8.05-7.91,12.71-4.97.12-9.98,0-14.96.04-12.19-2.9-24.65,1.3-36.99.01l2.99,1.99h-10c-13.32,0-26.68,0-40,0-11.15,0-22.35.13-33.51.02-1.69-.02-4.45.64-5.49-1.02,1.6-3.22,3.02-8.95,4.82-12.68,1.03-2.13,3.63-8.3,5.18-9.32,1.43-.95,2.81-.9,4.43-1.04,25.79-2.34,58.93.04,85.57.04Z"/>
    <path class="cls-169" d="M111.08,80.18c2.23.13,4.76.11,7,0,1.62-.08,3.55.43,5.05-.47l.72-1.03c.04-.4-.78-.75-.78-1v-29.5h7v32h6c-1.19-10.54-.99-20.87-.02-31.43l5.02-.57c4.45,8.62.72,20.68,2.15,30.35l4.34,1.64c2.28-1.31.51-2.1.51-2.49v-27c0-3.51,6.08-3.4,7.51-.51,2.02,4.11.06,23.03-.25,28.55l5.75,1.46v-32c1.68.14,3.8-.38,5.36.14,4.32,1.42,2.78,26.99,1.64,31.86h6s0-31.99,0-31.99c2.43.07,5.38-.76,7,1.5v30.5h5.01s.13-30.36.13-30.36l5.86-1.64c.32.15.65.72,1,1l1,31c1.88,2.33,15.26.34,19,1,.29.13.71.69,1,1H56.08c.21-2.79,1.56-2.16,2-3,4.5,1.76,10.1.97,15,1,2.33.02,4.67.01,7,0,1.67,0,3.33.02,5,0,2.65-.03,5.35.13,8,0,1.66-.08,3.35.07,5.01,0v-32.01s6.06.44,6.06.44c1.8,1.23,1.1,25.98.18,30.11.4,2.15,4.92,1.35,6.75,1.46Z"/>
    <path class="cls-172" d="M217.08,88.18c3.16,9.17,8.04,15.13,15,22,.41,3.47-1.1,1.4-2.79,1.3-8.22-.47-16.03.57-24.21.7-1.04-1.66-3.79-1-5.49-1.02-6.83-.08-13.69.02-20.51.02l-20.99-1.01c-.23-1.75,2.27-.94,3.48-.99,2.83-.12,5.69.02,8.51,0,4.97-.04,9.99.07,14.96-.04-.89-4.66,7.02-8.59,7.91-12.71.39-1.82-2.59-4.43-.87-7.24l-13-1c2,0,4,0,6,0,9.91-.03,19.32-.22,29-1,.45-.04,2.1,1.11,3,1Z"/>
    <path class="cls-126" d="M91.08,47.18c-.67,0-1.33,0-2,0s-1.33,0-2,0c-4.65.05-9.34-.04-14,0-.39,1,1,1.88,1,1.99,0,1.44-.97,3.47-1.04,5.45-.31,8.49.46,17.11.04,25.55-4.9-.03-10.5.76-15-1,1.71-3.3-.96-22.06.06-28.44.42-2.58,3.55-6.19,5.94-6.56s7.5,1.8,10.52,1.98c5.32.32,11.62-1.05,16.48,1.02Z"/>
    <path class="cls-62" d="M214.08,82.18c.33.34.65.69,1,1v2c-.99.08-2.01-.06-3,0l-156-1c-.08-.59-.05-1.39,0-2h158Z"/>
    <path class="cls-94" d="M67.08,42.18c35.98,0,72.02.17,108,0v1c-23.91-.13-49.52-1.78-73.22.28-1,.09-4.91.3-4.78,1.71,30.15,1.52,60.72,1.34,91,1.01v1c-14.67-1.15-31.98.07-47,0-16.65-.08-33.35-.1-50,0-4.87-2.06-11.17-.69-16.48-1.02-3.01-.18-8.14-2.35-10.52-1.98.31-.68.69-1.32,1-2h2Z"/>
    <path class="cls-83" d="M208.08,45.18c-3.51-.5-6.16.93-8,1-3.98.14-8.02-.04-12,0-30.28.33-60.85.51-91-1.01-.13-1.41,3.78-1.62,4.78-1.71,23.7-2.06,49.31-.42,73.22-.28,7.43.04,16.09.81,23-1l10,3Z"/>
    <path class="cls-79" d="M208.08,45.18c.54.08,1.22-.25,1.76.21.3.2,3.24,5.94,3.24,6.29v18c0,2.6,1.37,9.53,2,12.5v1c-.35-.31-.67-.66-1-1-.29-.31-.71-.87-1-1-2.56-1.14-3.95-1.33-7.01-1-.97-.94.57-22.85,0-27-.35-2.6-3-7.31-6-7,1.84-.07,4.49-1.5,8-1Z"/>
    <path class="cls-140" d="M186.08,3.18c3.93,13.02,6.57,26.51,12,39-6.91,1.81-15.57,1.04-23,1v-1c7.32-.03,14.68.03,22-.01l-5.01-13.98-1.98,2.99c-3.2-7.79-2.27-26.66-12.47-28.04-11.04-1.5-28.64.12-40.54.04,1.04-1.66,3.79-1,5.49-1.02,14.32-.18,29.54-1,43.51,1.02Z"/>
    <path class="cls-57" d="M212.08,85.18c-11.18.72-23.65-.04-35,0-25.32.09-50.68,0-76,0h-44c-.07-.3-.96-.71-1-1l156,1Z"/>
    <path class="cls-119" d="M101.08,85.18c1.04,1.66,3.79,1,5.49,1.02,16.83.18,33.7,0,50.51-.02v1c-3.32,0-6.68,0-10,0-26.64,0-59.78-2.38-85.57-.04-1.63.15-3,.09-4.43,1.04-.14-.93.21-2.18,0-3h44Z"/>
    <path class="cls-91" d="M109.08,1.18c-.17.01-1.12.96-2.42,1.04-5.15.32-10.43-.31-15.58-.04-11.79-.22-21.83,30.6-24,40h-2c5.6-12.44,8.04-35.67,23.01-40.49,6.09-1.96,14.86-2.32,20.99-.51Z"/>
    <path class="cls-55" d="M217.08,88.18c-.9.11-2.55-1.04-3-1h-57v-1c6.4,0,13.97.85,20-1,11.35-.04,23.82.72,35,0,.99-.06,2.01.08,3,0v-2s0-1,0-1c.22,1.06,1.5,4.56,2,6Z"/>
    <path class="cls-88" d="M163.08,1.18c4.3-.04,8.42-1.26,13.49-.99,2.99.16,6.19,1.63,9.5,1.03.22.63-.14,1.47.01,1.96-13.97-2.02-29.19-1.19-43.51-1.02-1.69.02-4.45-.64-5.49,1.02-8.32-.06-16.68-.03-25,0l18.46-2.04c10.84,0,21.71.14,32.54.04Z"/>
    <path class="cls-24" d="M163.08,1.18c-10.83.1-21.7-.05-32.54-.04l-18.46,2.04c-7.07.02-14.43-.88-21-1,5.15-.27,10.43.36,15.58.04,1.3-.08,2.25-1.03,2.42-1.04C125.21,0,141.38,0,157.59.16c1.69.02,4.45-.64,5.49,1.02Z"/>
    <path class="cls-87" d="M136.08,111.18c14.32,0,28.68,0,43,0,6.82,0,13.68-.1,20.51-.02,1.69.02,4.45-.64,5.49,1.02-26.29.43-52.71,0-79,0v-1h10Z"/>
    <path class="cls-36" d="M126.08,111.18v1c-11.49,0-23.02.16-34.51.02-1.69-.02-4.45.64-5.49-1.02,13.32,0,26.68,0,40,0Z"/>
    <path class="cls-122" d="M170.08,109.18c-2.82.02-5.69-.12-8.51,0-1.21.05-3.71-.76-3.48.99l20.99,1.01c-14.32,0-28.68,0-43,0l-2.99-1.99c12.35,1.29,24.81-2.91,36.99-.01Z"/>
    <path class="cls-76" d="M157.08,87.18h28v1c-2,0-4,0-6,0-8.82,0-17.68.13-26.51.02-1.69-.02-4.45.64-5.49-1.02,3.32,0,6.68,0,10,0Z"/>
    <path class="cls-108" d="M91.08,47.18c16.65-.1,33.35-.08,50,0v1l-5.02.57c-.97,10.56-1.17,20.89.02,31.43h-6v-32h-7v29.5c0,.25.81.6.78,1l-.72,1.03c-1.5.89-3.43.38-5.05.47l-.93-31.56-6.07-.44v32c-1.82-.1-6.35.7-6.75-1.46.92-4.13,1.61-28.87-.18-30.11l-6.07-.44v32.01c-1.65.06-3.33-.08-5,0-1.85-9.99,4.13-25.97-4-33,.67,0,1.33,0,2,0Z"/>
    <path class="cls-121" d="M188.08,47.18c2.27.18,1.97.04,4,1l-5.86,1.64-.13,30.37h-5.01v-30.51c-1.62-2.26-4.57-1.43-7-1.5v32h-6c1.14-4.87,2.68-30.44-1.64-31.86-1.56-.52-3.68,0-5.36-.14v32l-5.75-1.46c.32-5.52,2.27-24.44.25-28.55-1.42-2.9-7.51-3-7.51.51v27c0,.4,1.77,1.18-.51,2.49l-4.34-1.64c-1.43-9.67,2.3-21.73-2.15-30.35v-1c15.02.07,32.33-1.15,47,0Z"/>
    <path class="cls-146" d="M89.08,47.18c8.13,7.03,2.15,23.01,4,33-2.65.13-5.35-.03-8,0,.68-9.73-.75-19.83-.07-29.59.14-2.02.17-2.45,2.07-3.41.67,0,1.33,0,2,0Z"/>
    <path class="cls-52" d="M118.08,80.18c-2.24.11-4.77.13-7,0v-32s6.07.44,6.07.44l.93,31.56Z"/>
    <path class="cls-138" d="M206.08,53.18c.57,4.15-.97,26.06,0,27,3.05-.33,4.44-.15,7.01,1-3.74-.66-17.12,1.33-19-1l5.02-.58c-.03-9.14-.02-18.29-.02-27.42,2.58-1.81,4.85-.95,7,1Z"/>
    <path class="cls-111" d="M74.08,49.18l5-1,1,32c-2.33.01-4.67.02-7,0,.42-8.44-.36-17.06-.04-25.55.07-1.98,1.04-4.01,1.04-5.45Z"/>
    <path class="cls-108" d="M87.08,47.18c-1.9.95-1.93,1.39-2.07,3.41-.68,9.76.75,19.86.07,29.59-1.67.02-3.33,0-5,0l-1-32-5,1c0-.11-1.38-.99-1-1.99,4.65-.05,9.34.04,14,0Z"/>
    <path class="cls-101" d="M199.08,52.18c0,9.13-.01,18.29.02,27.42l-5.02.58-1-31c2.8,2.22,1.77,2.86,3.99,5l2.01-7v5Z"/>
    <path class="cls-34" d="M200.08,46.18l-1,1-2.01,7c-2.22-2.14-1.19-2.77-3.99-5-.35-.28-.68-.85-1-1-2.03-.96-1.73-.82-4-1v-1c3.98-.04,8.02.14,12,0Z"/>
    <path class="cls-95" d="M214.08,87.18c-9.68.78-19.09.97-29,1v-1h29Z"/>
    <path class="cls-66" d="M91.08,2.18c6.57.12,13.93,1.02,21,1,8.32-.03,16.68-.06,25,0,11.91.08,29.5-1.54,40.54-.04,10.2,1.38,9.27,20.25,12.47,28.04l1.98-2.99,5.01,13.98c-7.32.04-14.68-.02-22,.01-35.98.17-72.02,0-108,0,2.17-9.4,12.21-40.22,24-40Z"/>
    <path class="cls-26" d="M206.08,53.18c-2.15-1.95-4.42-2.81-7-1v-5l1-1c3-.31,5.65,4.4,6,7Z"/>
    <path class="cls-153" d="M177.08,85.18c-6.03,1.85-13.6.99-20,1-16.82.02-33.69.19-50.51.02-1.69-.02-4.45.64-5.49-1.02,25.32,0,50.68.09,76,0Z"/>
  </g>
  <path class="cls-84" d="M258.08,189.18c38.98,32.7,74,74.49,87.71,124.79,3.2,11.75,5.29,26.57,1.29,38.21.1-.94.59-3.31-.99-2.99l-5.01,8.99c.88-1.47,3.8-9.44,4-11,3.17-13.97-.6-29.18-4.96-42.54-1.06-3.23-2.81-6.34-4.04-9.46-.96-2.44-1.95-4.62-3-7-3.99-9.03-8.73-20.65-15-28-1.85-4.76-4.05-6.99-7-11-4.93-6.7-10.79-12.72-16-19-6.35-7.65-9.53-12.52-17-20-3.76-3.77-6.86-8.86-12-11-2.84-2.79-6.09-5.85-10-7l-4-3c.68,0,3.7-1.92,6,0Z"/>
  <path class="cls-42" d="M225.08,268.18c.71,1.88,1.51,2.84,2,4,.8,1.88.36,5.42,3,7,.21,2.04,1.31,3.29,2,5,2.38,5.9,6.08,13.08,10,18,.28,3.91,2.77,4.9,4,7,1.79,3.06,2.94,5.03,5,8,.69,1,1.22,1.95,2,3,3.07,4.16,5.62,7.15,9,11,10.75,12.24,18.9,20,34,27,2.93,1.36,3.38,1.89,7,3,.46.14,1.01.81,2,1,4.27,2.49,10.1,3.44,15,4,7.9.9,16.51-.47,21-8l5.01-8.99c1.57-.32,1.08,2.05.99,2.99-.06.63.17,1.65,0,2-.27.57-6.84,9.47-7.49,10.01-11.84,9.9-40.45-.24-52.51-7.01-26.95-15.14-60.43-66.06-66-96-.39-2.1-.73-3.84-1-6,1.84,4.23,3.37,8.68,5,13Z"/>
  <path class="cls-43" d="M236.08,173.18c-.45,3.75.31,8.15,0,12-.33.1-5.36,3.12-5.94,3.56-17.15,13.01-17.16,50.7-11.52,69.45.49,1.65-.22,3.56,2.46,2.99,5.57,29.94,39.05,80.86,66,96l-1.98,2.99c-2.57-8.15-5.21-2.95-7.52-2.97-1.31-.01-2.23-1.64-3.21-1.84-.8-.16-4.07,2.46-6.29.82-29.97-28.01-66.06-88.89-67.05-130.45-.56-23.56,4.56-55.89,35.05-52.55Z"/>
  <path class="cls-145" d="M339.08,579.18c.4,24.01,3.49,72.94-17,89-1.12.88-2.81.91-3.71,2.98-7.29,2.16-14.1-1.13-20.79-1.06-27.26.25-55.34,2.22-82.5,3.09-11.65.37-23.35.62-35,1h-79c-1.66-.06-3.34.05-5,0-3.26-2.06-8.53-.7-12.58-.96-1.3-.08-2.26-1.03-2.42-1.04h4c29.84,0,59.58.65,89.46-.04,29.42-.69,58.75-2.23,88-3,15.13-.4,39.05,2.24,52.54-.96,5.21-1.23,6.55-2.41,9.98-6.52,8.18-9.81,10.52-25.08,12.02-37.48,1.97-16.25.82-33.43,1-50,1.6.84.97,3.39,1,5Z"/>
  <path class="cls-64" d="M180.08,674.18c-27.42.9-51.73.98-79,0h79Z"/>
  <path class="cls-39" d="M238.08,185.18c.73,2.86-2.71,1.93-4,4v1c-7.41,1.06-9.93,10.11-12,16-4.4,12.55-4.18,20.27-4.02,33.51.02,1.69-.64,4.44,1.02,5.49.12,2.61.87,4.51,1,6,.11,1.31-.16,2.7,0,4,.27,2.16.61,3.9,1,6-2.68.57-1.97-1.34-2.46-2.99-5.64-18.75-5.62-56.44,11.52-69.45.59-.44,5.61-3.46,5.94-3.56.49-.15,1.35.07,2,0Z"/>
  <path class="cls-12" d="M246.08,188.18c.75,0,3.57.97,6,1l4,3c-5.92-1.74-5.05.36-5,6-1.99-.01-4.01-.08-6,0-1.66.06-3.35-.11-5,0l-.07-7.46,3.08-.55-1.01-1.99c1.33,0,2.67,0,4,0Z"/>
  <path class="cls-84" d="M238.08,185.18c3.95-.44,8.93,2.15,12.99,2.01l-4.99.99c-1.33,0-2.67,0-4,0-2.89-.02-5.22.57-8,1,1.29-2.07,4.73-1.14,4-4Z"/>
  <path class="cls-136" d="M330.08,439.18c10.33,21.92,9.18,49.15,9,73-.16,20.55-.78,41.32-1,62-.18,16.57.97,33.75-1,50l-1.03-151.49c.11-.71-.95-1.32-.97-1.51-1.72-14-3.93-20.67-8-34-.4-1.31-.63-2.68-1-4,1.78,2.47,2.31,2.41,4,6Z"/>
  <path class="cls-133" d="M182.08,283.18c-2.96,1.22-2.25,7.14-2,10-1.85-.42-1.52-1.84-2-3,3.51-6.74-7.25-17.22-1-23,.61,3.1,3.77,12.71,5,16Z"/>
  <path class="cls-105" d="M185.08,290.18c4.48,9.87,11.11,19.28,16,29,7.68,17.27,20.27,31.5,33,45-.4,1.45,1.68,3.97-1.53,2.04s-8.77-7.35-11.47-10.04c-6.23-6.21-10.23-12.39-15.66-18.88-.63-.75-3.99-4.95-5.34-3.12-3.26-4.83-5.34-9.9-8-15-2.03-3.89-4.01-8.06-6-12-1.12-2.21-2.96-4.34-4-7,2.44-1.69.07-9.62,1.01-11l1.99,1Z"/>
  <path class="cls-149" d="M185.08,290.18l-1.99-1c-.94,1.38,1.43,9.31-1.01,11-1-2.55-1.74-4.12-2-7s-.96-8.78,2-10c.77,2.06,2.06,4.93,3,7Z"/>
  <path class="cls-54" d="M295.08,230.18c5.21,6.28,11.07,12.3,16,19l1.99,6-6.88.12c-.27,3.27-.1,6.6-.11,9.88,3.27-.28,6.71.21,10,0l-1.99-8.99c1.39,1.1,2.85,2.67,3.99,4,.63,1.62,1.13,4.19,2,6l-3.07.55c.09,3.15.08,6.31.07,9.46-2.2.06-5.62-.76-7,1h-3c-.38-4.15-1.03-7.35-1-12-1.65.14-2.65.96-3,1-2.19.28-4.74-.19-7,0l-1,10-10,1c-.33,0-.67.01-1,0-2.86-.09-4.07-.74-6-1,1.85.26,4.08-.17,6.01,0,.04-3.32-.07-6.68,0-10.01,0-.33,0-.67,0-1h10.01c-.39-3.74.68-7.32.99-11,3.66-.06,7.35.04,11,0,1.24-9.22-1.82-12.81-10.86-9.85-.52,3.24.14,6.6-.14,9.85-3.66.06-7.34-.03-11,0v-10c.41,0,3.37-1.96,5-1,1.92.22,4.05-.14,6.01,0l-1.01-12.01c.33-.17.62-.76,1-1Z"/>
  <path class="cls-86" d="M345.08,347.18c-.2,1.56-3.12,9.53-4,11-4.49,7.53-13.1,8.9-21,8-.14-.96-2.66-2.3-1.49-3,3.07-1.83,7.98-2.21,11.5-2v-10.01s9.85-1.14,9.85-1.14l.08-8.29,4.06-1.57.91.55c.04,2.06.34,4.45.09,6.45Z"/>
  <path class="cls-22" d="M345.08,347.18c.25-2-.04-4.39-.09-6.45l-.91-.55h-3s1-5.99,1-5.99h-1.99c.04-1.01-.05-2.01,0-3.01h5c-1.17-3.62-.02-9.64-3-12-1.42-1.13-1.35-.84-3-1-.13-.94.19-2.15,0-3v-10.99s-.99,4-.99,4c-3.33,0-6.68-.01-10.01,0v-10c2.66-.06,5.35.05,8.01,0v-3c1.22,3.13,2.97,6.24,4.03,9.46,4.37,13.36,8.13,28.57,4.96,42.54Z"/>
  <path class="cls-46" d="M278.08,210.18c7.47,7.48,10.65,12.35,17,20-.38.24-.67.83-1,1-1.05.56-1.83.8-3,1l-6.01-.99-.96-11.58-10.03.58c-.78-.78,0-10.62,4-10Z"/>
  <path class="cls-96" d="M256.08,192.18c3.91,1.15,7.16,4.21,10,7,.11.11-.32,1.16.23,1.75,1.1,1.19,4.36,2.15,5.3,4.29.74,1.7-.66,3.16-.52,3.96h-9c-.05-2.29.78-9.42-1-10-2.3-1.83-6.86-.98-10-1-.05-5.64-.92-7.74,5-6Z"/>
  <path class="cls-92" d="M333.08,288.18c-1.37-.3-3.92-1.97-5-2-.26-3.65-1.02-7.48-2.01-11.01-2.86,1.55-5.94.93-8.99,1.01.02-3.14.03-6.31-.07-9.46l3.07-.55c-.87-1.8-1.37-4.38-2-6,6.27,7.35,11.01,18.97,15,28Z"/>
  <path class="cls-98" d="M318.08,260.18c-1.14-1.33-2.6-2.9-3.99-4l1.99,8.99c-3.29.21-6.73-.27-10,0,.02-3.28-.16-6.61.11-9.88l6.88-.12-1.99-6c2.95,4.01,5.15,6.24,7,11Z"/>
  <path class="cls-117" d="M278.08,210.18c-3.99-.61-4.78,9.22-4,10l10.03-.58.96,11.58,6.01.99c-1.62.28-3.64-.26-5.35-.05-.34.09-1.61,2.78-1.65,3.05.15-.93-.09-2.03,0-3h-11.01s0,10,0,10h10.01c-.92-2.73.71-5.22,1-7.01-.33,2.1.2,4.78,0,6.99,1.92-.83,4.09.9,5,1.01-1.63-.96-4.59,1.01-5,1-2.15-.03-6.4-2.05-9.36-1.05-.32.09-1.59,2.78-1.64,3.05.12-3.49.62-2.76-2.45-3-2.82-.22-5.74.15-8.56,0,0,2.33,0,4.68,0,7.01l-1-7.01h-9.43c-1.05.15-.57,5.55-.58,7.01l-1-7.01h-10.01s-.01,9.43-.01,9.43c.16,1.06,9.21.55,11.02.58,3.66.05,7.34,0,11,0s7.35-.09,11,0c1.32.03,3.31-.5,4,1-1.33.01-2.67-.03-4,0-3.32.06-6.68-.05-10.01,0v9.43c.14,1.02,5.18.64,6.55.58,1.92-.09,4.01,1.04,3.45-2,.14.67,2.3,2.4,3,3-.66.04-1.34-.06-2,0l-.07,9.43c.04.21,3.69,1.52,4.07,1.57-1.28-.17-2.7.11-4,0v10.01c3.65-.04,7.34.05,11,0,3.32-.05,6.68.03,10.01,0v-9.01c.33,0,.66,0,.99,0v10c-3.66-.02-7.34-.02-11,0s-7.34-.06-11,0-7.35-.04-11.01,0v9.43c.14,1.01,6.11.64,7.55.58,1.92-.08,4.01,1.03,3.45-2l1.72,2h8.29s1-8,1-8c-.03,3.71.71,5.95,1,9,.42,4.49-2.07,9.84,3,11-1,.03-2.01-.05-3,0v10.01c-.33,0-.67,0-1,0v-10.01c-3.32-.04-6.68.07-10,0-.33,0-.67,0-1,0-3.32.07-6.68-.05-10.01,0-.13,2.31.19,4.7,0,7.01l-1-7.01h-10.01c-.93.93,2.08,8.8-1.99,8.01-2.06-2.97-3.21-4.94-5-8l-.5-4c1.51,2.9,2.78,4.42,6.06,2.05l.45-9.06-8.37-.04c-.33.09-1.61,2.8-1.64,3.05-.29-1.14-1.97-3.1-2-4,3.99-.05,8.01.07,12,0,3.32-.06,6.68.04,10.01,0v-9.43s-10.01-.58-10.01-.58c-.03,1.33.03,2.67,0,4l-1.57-4.06-9.44.06c-.14,1.64.2,3.38,0,5.01-1.91-1.81.15-5.02-3-6,.57-.18,1.63-1.05,2-1,3.35.45,7.03,1.77,11.01,1.01v-10.01c-2.99-.04-6.01.07-9.01,0l9-.99v-10.01s-10.43-.01-10.43-.01c-1.04.16-.58,9.23-.58,11.02-3.32.06-6.68-.04-10,0l9-.99v-10.01s-10.01,0-10.01,0l1,9-3-1.99c-.49-1.16-1.29-2.12-2-4-.63-2.5.23-5.01,3-5,.13,0,1.15,1.02,2.43,1.03,2.86.02,5.73-.05,8.58-.03v-9.43s-10.01-.58-10.01-.58c.79,2.5-.58,4.23-1,6.01v-6.01c-1.66,0-3.33,0-5,0l5-1v-10s-8,0-8,0l7.01-1v-11s.99,0,.99,0c0,.33,0,.67,0,1,.03,1.75-.49,9.86.58,10.02h10.43c.04-3.34-.07-6.69,0-10.02,0-.33,0-.67,0-1h9c-2.88,1.47-4.74,1.09-8,1v10.01s9.43.01,9.43.01c1.06-.16.55-9.21.58-11.02h11l-10.01.99v10.01c3.66-.04,7.35.04,11.01,0,3.32-.05,6.68.03,10.01,0v-9.43s-10.01-.58-10.01-.58c-.02-.34.06-.71,0-1,3.66,0,7.34.01,11,0,1.79,0,10.86.46,11.02-.58l-.03-10.42-10,.99-1,6.01c0-2,0-4.01,0-6.01l-11.01,1.01c.05-.66-.04-1.34,0-2h11.01c-.4-2.82.58-6.7,0-9.28-.21-.95-1.92-1.18-2-1.72-.13-.79,1.27-2.26.52-3.96-.94-2.14-4.2-3.09-5.3-4.29-.54-.59-.12-1.65-.23-1.75,5.14,2.14,8.24,7.23,12,11ZM239.08,243.18h-10.01v10.01h10.01v-10.01ZM250.08,254.18h-10.01v10.01h10.01v-10.01ZM262.08,254.18h-11.01v10.01h11.01v-10.01ZM262.08,265.18h-10.01v10.01h10.01v-10.01ZM273.08,265.18h-10.01v10.01h10.01v-10.01ZM263.08,281.18l-1-5h-10s-.01,9.43-.01,9.43c.15,1.02,9.34.6,11.02.58,3.32-.05,6.68.04,10.01,0v-9.43s-10.01-.58-10.01-.58c-.03,1.66.04,3.34,0,5.01ZM263.08,298.18h-10.01v10.01h10.01v-10.01ZM274.08,298.18h-10.01v10.01h10.01v-10.01ZM285.08,298.18h-10.01v10.01h10.01v-10.01Z"/>
  <path class="cls-48" d="M333.08,288.18c1.05,2.38,2.04,4.56,3,7v3c-2.65.05-5.34-.06-8,0,0-2.65.12-5.36,0-8-.06-1.33.09-2.68,0-4,1.08.03,3.63,1.7,5,2Z"/>
  <path class="cls-23" d="M340.08,334.18h1.99s-1,6-1,6h3s-4.06,1.57-4.06,1.57l-.08,8.29-9.87,1.14v10.01c-3.51-.21-8.42.17-11.48,2-1.17.7,1.35,2.04,1.49,3-4.9-.56-10.73-1.51-15-4,6.59,1.27,4.43-.71,5.66-.99,1.81-.41,7.84.44,8.35,0,.04-1-.04-2,0-3l1-7.01h9.01s0-9.99,0-9.99l1-1,9.06-.43c1.44-1.01.88-3.96.94-5.57Z"/>
  <path class="cls-171" d="M275.08,321.18l1,8.01c1.33.03,2.67-.03,4,0v1c-1.4.12-3.61-.44-4.56.94l-.44,10.07h11.01c.02,2.81-.81,7.02,1,8.99l9,1c-.18,1.45-.27,2.96,1,4,.05.61,1.55,1.57.99,2.99h-1.99c-15.1-6.99-23.25-14.75-34-26.99.63-.19,1.47-.95,2-1,3.51-.35,7.43.25,11.01,0v-9.01Z"/>
  <path class="cls-161" d="M314.08,351.18h5c-.06,2.33.07,4.67,0,7-.03,1,.04,2.01,0,3-.51.45-6.54-.41-8.35,0-1.23.28.93,2.26-5.66.99-.99-.19-1.54-.86-2-1l5-1c.07-2.99-.08-6.01,0-9,2-.05,4,0,6,0Z"/>
  <path class="cls-70" d="M227.08,272.18l3,1.99-1-9h10.01s0,10.01,0,10.01l-9,.99c.07.99-.1,2.02,0,3-2.64-1.58-2.2-5.12-3-7Z"/>
  <path class="cls-142" d="M251.08,317.18c4.08.79,1.06-7.07,1.99-8.01h10.01s1,7.01,1,7.01c-.05.66.04,1.34,0,2-3.26,2.28-8.2-.42-11,2-.78-1.05-1.31-2-2-3Z"/>
  <path class="cls-8" d="M308.08,351.18c-.08,2.99.07,6.01,0,9l-5,1c-3.62-1.11-4.07-1.64-7-3h1.99c.55-1.43-.94-2.39-.99-3-.06-.78-.04-1.57.14-2.34l1.5-1.52c3.11-.37,6.25-.06,9.36-.14Z"/>
  <path class="cls-49" d="M240.08,276.18c0,2.99,0,6.01,0,9-.37-.05-1.43.82-2,1-1.69-.52-4.29.25-6-2-.69-1.71-1.79-2.96-2-5-.1-.98.07-2.01,0-3,3.32-.04,6.68.06,10,0Z"/>
  <path class="cls-124" d="M242.08,301.18c.03-.25,1.31-2.96,1.64-3.05l8.37.04-.45,9.06c-3.28,2.37-4.55.85-6.06-2.05l.5,4c-1.23-2.1-3.72-3.09-4-7-.02-.31-.04-.69,0-1Z"/>
  <path class="cls-86" d="M264.08,319.18c-.17,3.25-1.32,7.6,0,11-.53.05-1.37.81-2,1-3.38-3.85-5.93-6.84-9-11,2.8-2.42,7.74.28,11-2-.02.33.02.67,0,1Z"/>
  <path class="cls-132" d="M223.08,254.18c1.67,0,3.34-.01,5.01,0v6.01c-.2.84.13,2.06,0,3-2.77-.01-3.63,2.5-3,5-1.63-4.32-3.16-8.77-5-13-.16-1.3.11-2.69,0-4h1c.21.83-.22,2.11.48,3.02l1.01.81c.26.01.43-.83.51-.83Z"/>
  <path class="cls-163" d="M238.08,286.18c3.15.98,1.09,4.19,3,6-.16,1.34-1.01,4.75-1,5,.03.9,1.71,2.86,2,4-.04.31-.02.69,0,1-3.92-4.92-7.62-12.1-10-18,1.71,2.25,4.31,1.48,6,2Z"/>
  <path class="cls-78" d="M234.08,190.18c1.55-.22,3.4.14,5.01,0v8.01s-10.01.99-10.01.99c-.86,3.36-.85,6.57-1,10-2-.18-3.95-.65-5.88-1.15l-.12-1.85c2.07-5.89,4.59-14.94,12-16Z"/>
  <path class="cls-70" d="M239.08,199.18v10c-3.58-.07-7.52.31-11,0-.15,3.64.06,7.35,0,11-1.85.02-8.06-.87-8.53-.05-.95,3.6-.39,7.39-.47,11.05-.1,4.59-.22,9.43,0,14-1.66-1.04-1-3.79-1.02-5.49-.16-13.25-.39-20.96,4.02-33.51l.12,1.85c1.93.5,3.88.97,5.88,1.15.15-3.43.14-6.64,1-10,3.28-.2,6.74.29,10,0Z"/>
  <path class="cls-30" d="M227.08,231.18v11s-7,1-7,1c-.52,3.08.28,5.22,1,8h-1c-.13-1.49-.88-3.39-1-6-.22-4.57-.1-9.41,0-14h8Z"/>
  <path class="cls-166" d="M242.08,188.18l1.01,1.99-3.08.55.07,7.46c-.24.02-.73.98-1,1-3.26.29-6.72-.2-10,0l10-.99v-8.01c-1.61.14-3.45-.22-5,0v-1c2.78-.43,5.11-1.02,8-1Z"/>
  <path class="cls-161" d="M245.08,198.18l5,1c.05,3.32-.07,6.68,0,10-3.65,0-7.35.08-11,0v-10c.27-.02.76-.98,1-1,1.65-.11,3.34.06,5,0Z"/>
  <path class="cls-166" d="M251.08,198.18c3.14.02,7.7-.83,10,1h-10.01s0,10,0,10h-1c-.06-3.32.05-6.68,0-10l-5-1c1.99-.08,4.01-.01,6,0Z"/>
  <path class="cls-118" d="M277.08,254.18c2.33-.02,4.67.02,7,0,0,3.66.05,7.34,0,11,0,.33,0,.67,0,1-2.39-1.35-5.35-1.15-8-1-.7-.6-2.86-2.33-3-3-.47-2.22.33-5.57,0-8,1.33-.03,2.67.01,4,0Z"/>
  <path class="cls-102" d="M295.08,254.18c-.32,3.68-1.38,7.26-.99,11.01h-10.01c.05-3.66,0-7.35,0-11.01,3.66-.03,7.34.06,11,0Z"/>
  <path class="cls-139" d="M284.08,244.18v10c-2.33.02-4.67-.02-7,0-.69-1.5-2.68-.97-4-1,.23-2.22-.33-4.89,0-7,.04-.27,1.32-2.96,1.64-3.05,2.97-1,7.21,1.02,9.36,1.05Z"/>
  <path class="cls-142" d="M294.08,231.18l1.01,12.01c-1.95-.15-4.09.21-6.01,0-.91-.1-3.08-1.83-5-1.01.2-2.21-.33-4.89,0-6.99.04-.27,1.31-2.96,1.65-3.05,1.71-.21,3.73.33,5.35.05,1.17-.2,1.95-.44,3-1Z"/>
  <path class="cls-129" d="M295.08,254.18c.28-3.24-.38-6.61.14-9.85,9.04-2.96,12.11.64,10.86,9.85-3.66.04-7.35-.06-11,0Z"/>
  <path class="cls-129" d="M276.08,265.18c2.65-.15,5.61-.35,8,1-.06,3.32.05,6.68,0,10.01-1.93-.17-4.15.25-6.01,0-.38-.05-4.03-1.36-4.07-1.57l.07-9.43c.66-.05,1.33.04,2,0Z"/>
  <path class="cls-85" d="M295.08,277.18v9.01c-3.32.03-6.68-.05-10,0l-1-9c.33.01.67,0,1,0,3.32.09,6.68-.05,10,0Z"/>
  <path class="cls-160" d="M278.08,276.18c1.93.26,3.14.91,6,1l1,9c-3.66.05-7.35-.04-11.01,0v-10.01c1.3.12,2.73-.17,4.01,0Z"/>
  <path class="cls-142" d="M303.08,266.18c3.04-.56,1.91,1.53,2,3.45.1,2.18-.06,4.38,0,6.55h-8.43s-.58-10.01-.58-10.01c2.26-.19,4.81.28,7,0Z"/>
  <path class="cls-148" d="M306.08,265.18c-.03,4.65.62,7.85,1,12,.27,2.93-.19,6.05,0,9.01h8.43s.58-9.01.58-9.01c-2,0-4.01,0-6.01,0,1.38-1.76,4.8-.94,7-1-.02,4.32.7,7.42,1,11,.28,3.28-.2,6.71,0,10.01h9.01s1-7.01,1-7.01c.12,2.64,0,5.35,0,8-3.32.07-6.68-.07-10,0-.33,0-.67,0-1,0,0-.33,0-.67,0-1-.07-3.32.05-6.68,0-10.01-3.32-.04-6.68.07-10.01,0-.33,0-.67,0-1,0v-10.01c-3.32-.04-6.68.07-10,0-.33,0-.67,0-1,0-3.32-.05-6.68.09-10,0l10-1,1-10,.58,10.02h8.43c-.06-2.18.09-4.39,0-6.57-.09-1.92,1.04-4.01-2-3.45.35-.04,1.35-.86,3-1Z"/>
  <path class="cls-35" d="M307.08,287.18v10.01s10,0,10,0c0,.33,0,.67,0,1-2.33.06-8.43-.69-9.56.94-.87,3.28-.38,6.73-.44,10.06-3.32.07-6.68-.05-10.01,0v10.01s10.01,0,10.01,0c.03-3.32-.06-6.68,0-10.01.66-.01,1.34-.02,2,0l-.42,10.02h8.43s0-10.02,0-10.02c-1-.04-2,.04-3,0,4.79-1.03,2.9-6.57,3-11,.33,0,.67,0,1,0v10.01s10,0,10,0c3.33,0,6.68,0,10.01,0l.98-4v10.99c-.38-1.74-1.8-3.53-.98-6.01-3.33,0-6.68,0-10,0h-10.01s-.01,8.42-.01,8.42c.15,1.01,5.2.64,6.57.58,1.92-.09,4.01,1.04,3.45-2l1.71,2c3.06.27,6.24-.3,9.29,0,1.65.16,1.58-.13,3,1h-2c.66,3.23-.37,5.38-1,8v-8.01s-10.01,0-10.01,0v9.43s10.01-.42,10.01-.42c-.17.46.15,1.38,0,2-3.33.05-6.68-.04-10.01,0-2.99.04-6.01-.03-9,0l8-1v-10.01s-10.01,0-10.01,0v7.01c-.13-1.2-1.96-3.76-.99-6.01h-9.01s0,9.01,0,9.01l5,1c-1.66.09-3.35-.08-5.01,0v10.01c3.27-.56,8.24,1.72,10.01-2.01.03.66-.05,1.34,0,2l11.01-1c.04.2.81.61,1,1l-1,1h-10.01c-.05,3.32.08,6.68,0,10h-5l4.06-1.57-.64-8.45h-9.43c-.06,3.33.1,6.7,0,10.02-3.11.07-6.25-.23-9.36.14l-1.5,1.52c-.18.77-.2,1.56-.14,2.34-1.27-1.04-1.18-2.55-1-4,.3-2.42,1.87-5.74,1-9l1,8,9.02-.58v-8.43c-3.34,0-6.69,0-10.02,0s-6.68,0-10.01,0v9.01c-1.8-1.97-.98-6.18-.99-9-.02-3.66.02-7.35,0-11.01-1.98.11-4.03-.16-6.01,0v-1c2,.04,4-.03,6,0,1.89.03,4.91-.68,6,1-1.66.1-3.35-.09-5.01,0-.05.66.04,1.33,0,2-.14,2.65.09,5.35,0,8.01,2.99.04,6.01-.07,9.01,0,.33,0,.67,0,1,0,3.32-.05,6.68.04,10.01,0v-10.01c-2.23.22-4.86-.3-7.01,0l7.01-1v-9.01s-9.43-.01-9.43-.01l-.57,10.02c-1,.04-2-.04-3,0,3.73-1.77,1.45-6.73,2.01-10.01-1.24-1.24-9.04,1.02-10.01,1.01-2.61-.05-7.82-.74-11-1-.64-.05-1.83-.9-3-1,3.67-1.66,1.49-6.53,2-10,.33,0,.67,0,1,0v10.01c3.32.04,6.68-.07,10,0,.33,0,.67,0,1,0,3.32-.06,6.68.05,10.01,0l-1.01-10.01,1-1h10.01s0-10.01,0-10.01c-1-.04-2,.04-3,0,4.71-.98,3-6.62,3-11,.33,0,.67,0,1,0Z"/>
  <path class="cls-151" d="M342.08,319.18c2.97,2.36,1.83,8.37,3,11.99h-5c-.04,1,.04,2.01,0,3.01-.06,1.61.51,4.55-.94,5.57l-9.06.43c-.19-.39-.96-.8-1-1-.46-2.63.32-6.2,0-9,3.33-.05,6.68.04,10.01,0,.15-.62-.18-1.54,0-2,.1-.27-.08-.67,0-1,.63-2.62,1.67-4.77,1-8.01h2Z"/>
  <path class="cls-161" d="M328.08,298.18v10h-10.01s0-10,0-10c3.32-.07,6.68.07,10,0Z"/>
  <path class="cls-114" d="M328.08,309.18c3.33,0,6.68,0,10,0-.81,2.48.6,4.27,1,6.01.19.85-.13,2.06,0,3-3.05-.29-6.22.27-9.29,0l-1.71-2v-7Z"/>
  <path class="cls-142" d="M271.08,209.18c.09.53,1.79.77,2,1.72.58,2.59-.4,6.46,0,9.29h-11.01c.02-.34-.01-.67,0-1.01.14-3.29.08-6.71,0-10h9Z"/>
  <path class="cls-98" d="M261.08,199.18c1.78.58.95,7.71,1,10h-11v-10.01s10,0,10,0Z"/>
  <path class="cls-99" d="M328.08,286.18c-2-.05-6.97,2.06-10,1-.3-3.58-1.02-6.68-1-11,3.05-.08,6.12.54,8.99-1.01,1,3.53,1.75,7.37,2.01,11.01Z"/>
  <path class="cls-71" d="M262.08,220.18c-.04.66.05,1.34,0,2-.17,2.27-.61,5.77-1,8-.06.32.04.67,0,1h-11c0-.33,0-.67,0-1,.04-2.99,0-6.01,0-9l12-2c-.01.33.02.67,0,1Z"/>
  <path class="cls-160" d="M262.08,222.18l11.01-1.01c0,2,0,4.01,0,6.01,0,1.33,0,2.67,0,4-3.66.01-7.34,0-11,0-.11-.47-.54-.85-1-1,.39-2.23.83-5.73,1-8Z"/>
  <path class="cls-38" d="M273.08,227.18l1-6.01,10-.99.03,10.42c-.16,1.04-9.22.57-11.02.58,0-1.33,0-2.67,0-4Z"/>
  <path class="cls-85" d="M328.08,290.18l-1,7.01h-9.01c-.19-3.3.28-6.72,0-10.01,3.03,1.06,8-1.05,10-1,.09,1.32-.06,2.67,0,4Z"/>
  <path class="cls-85" d="M239.08,220.18c0,3.66.05,7.34,0,11,0,.33,0,.67,0,1h-11c0-.33,0-.67,0-1-.05-3.65-.06-7.35,0-11,3.66-.03,7.34,0,11,0Z"/>
  <path class="cls-161" d="M296.08,287.18v11c-3.32,0-6.68,0-10,0-.29-3.05-1.03-5.29-1-9,0-.67,0-1.33,0-2,3.66-.02,7.34-.02,11,0Z"/>
  <path class="cls-15" d="M250.08,220.18c0,.33,0,.67,0,1,0,2.99.04,6.01,0,9-.67.32-1.34.66-2,1h-9c.05-3.66,0-7.34,0-11,3.66,0,7.34,0,11,0Z"/>
  <path class="cls-17" d="M262.08,231.18c.06.29-.02.66,0,1,.19,3.31-.13,6.69,0,10-3.66.05-7.35-.04-11.01,0v-10.01s10.01-.99,10.01-.99c.04-.33-.06-.68,0-1,.46.15.89.53,1,1Z"/>
  <path class="cls-161" d="M240.08,276.18c0-1.79-.46-10.86.58-11.02h10.43s0,10.02,0,10.02l-9,.99c-.66-.01-1.34-.01-2,0Z"/>
  <rect class="cls-161" x="251.07" y="254.18" width="11.01" height="10.01"/>
  <path class="cls-160" d="M274.08,287.18v8c.56,3.03-1.53,1.92-3.45,2-1.44.06-7.41.43-7.57-.58v-9.43c3.67-.03,7.36.06,11.02,0Z"/>
  <path class="cls-161" d="M262.08,250.18c0-2.33,0-4.68,0-7.01,2.82.16,5.74-.22,8.56,0,3.07.24,2.57-.49,2.45,3-.33,2.11.23,4.78,0,7-3.65-.09-7.35,0-11,0,0-1,0-2,0-3Z"/>
  <path class="cls-130" d="M242.08,276.18c2.99.06,6.01-.05,9.01,0v10.01c-3.98.76-7.66-.55-11.01-1.01,0-2.99,0-6.01,0-9,.66-.01,1.34-.01,2,0Z"/>
  <path class="cls-17" d="M239.08,232.18c-.06,3.32.05,6.68,0,10.01h-10.43c-1.06-.15-.55-8.25-.58-10.01h11Z"/>
  <path class="cls-18" d="M241.08,292.18c.2-1.63-.15-3.37,0-5.01l9.44-.06,1.57,4.06c-.04,2,.03,4,0,6-3.99.07-8.01-.05-12,0,0-.25.84-3.66,1-5Z"/>
  <path class="cls-115" d="M296.08,298.18v10l-1,1c-2,.04-4-.06-6,0-5.07-1.16-2.58-6.51-3-11,3.32,0,6.68,0,10,0Z"/>
  <path class="cls-56" d="M263.08,286.18c-1.68.03-10.87.44-11.02-.58v-9.43s10.02,0,10.02,0l1,5c-.03,1.67.02,3.33,0,5Z"/>
  <path class="cls-63" d="M228.08,260.18c.42-1.78,1.79-3.51,1-6.01l10.02.58v9.43c-2.86-.02-5.73.04-8.59.03-1.28,0-2.3-1.03-2.43-1.03.13-.94-.2-2.16,0-3Z"/>
  <path class="cls-38" d="M251.08,250.18c0-1.45-.48-6.86.58-7.02h9.43s1,7.02,1,7.02c0,1,0,2,0,3-3.66,0-7.34.05-11,0,0-1,0-2,0-3Z"/>
  <path class="cls-159" d="M250.08,231.18c-.03,1.81.48,10.86-.58,11.02h-9.43s0-10.02,0-10.02c3.27.1,5.12.47,8-1,.66-.34,1.33-.68,2-1,0,.33,0,.67,0,1Z"/>
  <path class="cls-63" d="M251.08,253.18c-1.81-.03-10.86.48-11.02-.58v-9.43s10.02,0,10.02,0l1,7.01c0,1,0,2,0,3Z"/>
  <path class="cls-161" d="M284.08,235.18c-.28,1.78-1.91,4.28-1,7.01h-10.01s0-10.01,0-10.01h11.01c-.1.98.14,2.07,0,3.01Z"/>
  <path class="cls-142" d="M273.08,254.18c.33,2.43-.47,5.78,0,8,.56,3.04-1.53,1.91-3.45,2-1.37.07-6.41.44-6.57-.58v-9.43c3.34-.04,6.69.07,10.02,0Z"/>
  <path class="cls-161" d="M296.08,277.18c3.32.06,6.68-.05,10.01,0v10.01c-3.33-.05-6.68.02-10.01,0v-10Z"/>
  <path class="cls-89" d="M275.08,309.18c3.32.06,6.68-.05,10.01,0v10.01c-3.33-.06-6.69.05-10.01,0v-10.01Z"/>
  <rect class="cls-137" x="252.07" y="265.18" width="10.01" height="10.01"/>
  <path class="cls-85" d="M263.08,281.18c.03-1.67-.04-3.34,0-5.01l10.02.58v9.43c-3.34.03-6.69-.06-10.02,0,.02-1.67-.03-3.33,0-5Z"/>
  <rect class="cls-15" x="263.07" y="265.18" width="10.01" height="10.01"/>
  <path class="cls-89" d="M262.08,232.18l10.02.58v9.43c-3.34.03-6.69-.05-10.02,0-.13-3.31.19-6.69,0-10Z"/>
  <path class="cls-15" d="M289.08,309.18c2-.06,4,.04,6,0l1.01,10.01c-3.32.04-6.68-.07-10.01,0v-10.01c.99-.04,2,.04,3,0Z"/>
  <path class="cls-54" d="M228.08,220.18c-.06,3.65-.05,7.35,0,11h-9c.08-3.66-.48-7.46.47-11.05.47-.82,6.68.07,8.53.05Z"/>
  <rect class="cls-85" x="229.07" y="243.18" width="10.01" height="10.01"/>
  <path class="cls-102" d="M285.08,287.18c0,.67,0,1.33,0,2l-1,8h-8.29s-1.72-2-1.72-2v-8c3.66-.06,7.34.02,11,0Z"/>
  <path class="cls-85" d="M252.08,291.18c.03-1.33-.04-2.68,0-4l10.02.58v9.43c-3.34.04-6.69-.06-10.02,0,.03-2-.04-4,0-6Z"/>
  <rect class="cls-139" x="240.07" y="254.18" width="10.01" height="10.01"/>
  <rect class="cls-157" x="253.07" y="298.18" width="10.01" height="10.01"/>
  <rect class="cls-33" x="264.07" y="298.18" width="10.01" height="10.01"/>
  <rect class="cls-161" x="275.07" y="298.18" width="10.01" height="10.01"/>
  <path class="cls-161" d="M274.08,309.18c-.51,3.47,1.67,8.34-2,10-2.62-.23-5.36.16-8,0,.02-.33-.02-.67,0-1,.04-.66-.05-1.34,0-2,.19-2.3-.14-4.69,0-7.01,3.32-.04,6.68.07,10.01,0Z"/>
  <path class="cls-15" d="M220.08,243.18h8.01s0,10,0,10l-5,1c-.08,0-.26.84-.51.83l-1.01-.81c-.7-.9-.26-2.18-.48-3.02-.72-2.78-1.52-4.92-1-8Z"/>
  <path class="cls-15" d="M329.08,341.18v10.01s-9-.01-9-.01l-1,7.01c.07-2.33-.06-4.67,0-7,.08-3.32-.06-6.68,0-10.01h10.01Z"/>
  <path class="cls-115" d="M272.08,319.18c1.17.1,2.36.95,3,1v10.01c-3.57.24-7.49-.35-11,0-1.32-3.4-.17-7.75,0-11,2.64.16,5.38-.23,8,0Z"/>
  <path class="cls-104" d="M280.08,330.18c1.97-.16,4.03.1,6.01,0,.01,3.66-.03,7.35,0,11.01h-11.01s.44-10.06.44-10.06c.95-1.38,3.16-.82,4.56-.94Z"/>
  <path class="cls-72" d="M297.08,341.18v1c.87,3.26-.7,6.58-1,9l-9-1v-9.01c3.32,0,6.67,0,10,0Z"/>
  <path class="cls-15" d="M286.08,321.18v8c-2-.03-4,.04-6,0-1.33-.03-2.67.04-4,0l-1-8.01v-1c3.18.26,8.39.95,11,1Z"/>
  <path class="cls-139" d="M308.08,351.18c.09-3.32-.07-6.68,0-10.01h9.43s.64,8.44.64,8.44l-4.06,1.57c-2,0-4-.05-6,0Z"/>
  <path class="cls-158" d="M239.08,209.18c0,3.66,0,7.34,0,11-3.66,0-7.34-.03-11,0,.06-3.65-.15-7.36,0-11,3.48.31,7.42-.07,11,0Z"/>
  <path class="cls-115" d="M250.08,209.18c.07,3.65-.02,7.34,0,11-3.66,0-7.34,0-11,0,0-3.66,0-7.34,0-11,3.65.08,7.35,0,11,0Z"/>
  <path class="cls-100" d="M262.08,209.18c.08,3.29.14,6.71,0,10l-12,2c0-.33,0-.67,0-1-.02-3.66.07-7.35,0-11h12Z"/>
  <path class="cls-100" d="M307.08,287.18c3.32.06,6.68-.05,10.01,0,.04,3.32-.07,6.68,0,10.01h-10.01s0-10,0-10Z"/>
  <path class="cls-139" d="M310.08,277.18c2,0,4.01,0,6.01,0l-.58,9.02h-8.43c-.19-2.97.27-6.09,0-9.02h3Z"/>
  <path class="cls-114" d="M294.08,330.18c1-.04,2.01.05,3,0l.57-10.02h9.43s0,9.02,0,9.02l-7.01,1c-5.02.73-2.47,6.19-3,10-.33,0-.67,0-1,0v-9s-9,1-9,1c.03-.66-.06-1.34,0-2,1.66-.09,3.35.1,5.01,0,.66-.04,1.34.02,2,0Z"/>
  <path class="cls-22" d="M320.08,330.18c2.99-.03,6.01.04,9,0,.32,2.8-.46,6.37,0,9l-11.01,1c-.05-.66.04-1.33,0-2-.13-2.64.21-5.37,0-8,.67-.01,1.33,0,2,0Z"/>
  <path class="cls-102" d="M306.08,287.18c0,4.38,1.71,10.02-3,11-2.32-.07-4.67,0-7,0v-11c3.33.02,6.68-.05,10,0Z"/>
  <path class="cls-85" d="M317.08,298.18c-.1,4.43,1.79,9.97-3,11-1.66-.05-3.34.04-5,0-.66-.02-1.34-.01-2,0,.05-3.33-.43-6.79.44-10.06,1.13-1.63,7.23-.87,9.56-.94Z"/>
  <path class="cls-141" d="M318.08,326.18v-7.01s10.01,0,10.01,0v10.01s-8.01,1-8.01,1c-.67,0-1.33-.01-2,0-.1-1.32.14-2.69,0-4Z"/>
  <path class="cls-142" d="M307.08,309.18c-.05,3.32.04,6.68,0,10.01h-10.01s0-10.01,0-10.01c3.32-.05,6.68.07,10.01,0Z"/>
  <path class="cls-15" d="M303.08,298.18c1,.03,2.01-.04,3,0v10.01s-10,0-10,0v-10c2.33,0,4.68-.07,7,0Z"/>
  <path class="cls-129" d="M300.08,330.18c2.14-.31,4.77.21,7.01,0v10.01c-3.32.03-6.68-.05-10.01,0,.53-3.81-2.02-9.27,3-10Z"/>
  <path class="cls-22" d="M339.08,328.18l-10.02.42v-9.43s10.02,0,10.02,0v8.01c-.09.33.1.73,0,1Z"/>
  <path class="cls-17" d="M313.08,330.18c1.65-.09,3.34.03,5,0,.21,2.63-.13,5.36,0,8-1.77,3.73-6.73,1.45-10.01,2.01v-10.01c1.66-.07,3.35.1,5.01,0Z"/>
  <path class="cls-82" d="M286.08,321.18c.97.02,8.77-2.24,10.01-1.01-.56,3.27,1.72,8.24-2.01,10.01-.66.02-1.34-.04-2,0-1.09-1.68-4.11-.97-6-1v-8Z"/>
  <path class="cls-22" d="M328.08,309.18v7c.56,3.04-1.53,1.91-3.45,2-1.37.07-6.41.44-6.57-.58v-8.43s10.02,0,10.02,0Z"/>
  <path class="cls-129" d="M313.08,330.18l-5-1v-9s9.01,0,9.01,0c-.97,2.25.86,4.81,1,6.01.14,1.31-.1,2.68,0,4-1.66.03-3.35-.09-5,0Z"/>
  <path class="cls-161" d="M314.08,309.18c1,.03,2.01-.05,3,0v10.01s-8.43.01-8.43.01l.42-10.02c1.66.04,3.34-.05,5,0Z"/>
  <path class="cls-17" d="M297.08,341.18c3.33,0,6.68,0,10.01,0v8.43s-9.01.58-9.01.58l-1-8v-1Z"/>
  <path class="cls-160" d="M287.08,332.18l9-1v9c-2.99-.07-6.01.05-9,0,.1-2.65-.13-5.36,0-8.01Z"/>
  <g>
    <path class="cls-1" d="M35.08,598.18c.2,19.48-.79,40.16,8,58-.16-.14-1.28.35-1.79-.18-.35-.36-2.18-8.42-3.2-6.81-.05.66.03,1.33-.01,1.99-1.52-2.05-2.83-4.62-3.37-7.13s-1.63-10.15-1.63-12.37v-15c0-2.68-.9-7.78-1-11.5-.41-14.94,0-30.05,0-45l2.01-43.49c1.59-9.61,1.39-19.4,1.95-29.1.08-1.33,1.03-2.28,1.04-2.41-.9,35.89-3.4,71.55-3.02,107.51.02,1.69-.64,4.45,1.02,5.49Z"/>
    <path class="cls-7" d="M246.08,380.18c1.6.84,4.21.74,4.79,1.22.17.14,2.13,3.58,2.21,3.78.12.28-.12.71,0,1,.04.09-.83.28,0,2-4.51-2.37-9.11-6.2-13.02-9.48-4.72-3.97-10.27-8.62-13.98-13.52,7.28,3.83,12.73,11.21,20,15Z"/>
    <path class="cls-44" d="M68.08,204.18c-6.8,4.48-14.73,9.61-16.01,17.99l-1.48-1.99c-1.97.8-6.68,9.88-7.7,12.3-10.31,24.55-4.38,55.73-4.8,81.69,1.55.01,1.4-3.51,1.66-4.83.72-3.65,1.43-7.41,1.34-11.17,9.21,2.67,2.92-4.95,2.21-8.75-.96-5.1,2.79-11.42,3.68-16.85,1.08-6.58-.02-16.81,1.31-22.69,2.04-9,16.06-24.36,23.3-30.7,4.93-4.32,9.24-6.17,15.49-8.01v1c-6.38,1.7-18.72,12.03-23.54,16.96-15.11,15.47-14.6,28.31-14.46,49.04.12,18.14.76,36.28.98,54.51.02,1.69-.64,4.44,1.02,5.49-.84,17.75-.87,35.19-1,53-.6,79.73-1,159.79-.02,239.51.02,1.69-.64,4.45,1.02,5.49.19,2.61.34,2.75,1,5,2.65,9.07,10.57,14.27,19.61,15.89,38.46.13,76.94.21,115.39.11v1c-12.07.02-25.71-.85-37.55-.06-1.86.13-3.74-.24-4.45,2.06-25.17-.18-50.37.1-75.55.05-6.32-1.77-10.9-4.41-15.44-9.05l4.99,14c-10.58-4.18-15.87-11.82-18.71-22.79-3.52-13.64-3.04-31.79-3.34-45.74-.21-9.89-.06-19.84-.17-29.75l-1.77-1.71c.07,10.98-.12,22.02,0,33-1.66-1.04-1-3.79-1.02-5.49-.38-35.96,2.12-71.62,3.02-107.51,1.65-24.1,2.94-50.79,2-75-.14-9.73.05-20.37-1-30l-1-60-2.04-47.54c1.6-9.55.67-18.68,2.69-28.31,3.47-16.47,14.17-34.08,30.35-40.15Z"/>
    <path class="cls-147" d="M135.08,202.18c6.1,5.08,12.07,9.18,16.83,15.67,15.19,20.69,16.67,49.24,26.17,72.33.48,1.16.15,2.58,2,3,.26,2.88,1,4.45,2,7s2.88,4.79,4,7v5.99c-1.56-6.07-6.23-11.36-8.4-17.1-1.13-2.98-1.23-6.54-2.31-9.69-2.37-6.91-6.16-13.59-6.3-21.21-3.11-.85-1.61,3.08-4.48,3.06-1.42-.01-3.27-1.91-3.93-3.13-6.18-11.34.65-20.79-9.15-32.85-2.5-3.08-12.67-12.22-16.07-14.93-2.59-2.07-14.95-9.64-17.85-9.75-1.53-.06-3.73,1.61-5.51,1.61-4.79-1.66-19.74.46-25,2-6.26,1.83-10.57,3.68-15.49,8.01-7.23,6.34-21.25,21.7-23.3,30.7-1.34,5.88-.23,16.11-1.31,22.69-.89,5.43-4.64,11.75-3.68,16.85.72,3.8,7,11.42-2.21,8.75.09,3.75-.62,7.51-1.34,11.17-.26,1.31-.11,4.84-1.66,4.83.42-25.96-5.51-57.14,4.8-81.69,1.02-2.42,5.73-11.5,7.7-12.3l1.48,1.99c1.28-8.38,9.21-13.51,16.01-17.99,20.43-13.47,45.25-12.74,67-2Z"/>
    <path class="cls-40" d="M326.08,433.18c.37,1.32.6,2.69,1,4-1.94-1.33-2.34-3.62-5-4-1.62-2.87-2.79-3.82-5-6-10.48-10.35-28.03-17.46-41.02-24.48-7.41-4-14.48-8.7-21.98-12.52-.36-.65-.68-1.33-1-2-.83-1.72.04-1.91,0-2l29.45,18.05c16.87,6.25,33,14.34,43.55,28.95Z"/>
    <path class="cls-74" d="M35.08,598.18c-.11-10.98.08-22.02,0-33l1.77,1.71c.11,9.91-.05,19.86.17,29.75.3,13.96-.18,32.1,3.34,45.74,2.83,10.97,8.12,18.61,18.71,22.79,9.79,3.87,29.3,4.62,40.46,5.04,46.34,1.76,92.92-1.55,139-3.08,9.49-.32,19.06.37,28.54.04l49-1c-.37.31-.6,1.49-1,2-13.49,3.2-37.41.56-52.54.96-29.25.77-58.58,2.31-88,3-29.88.7-59.62.04-89.46.04-6.12-1.69-12.84-1.01-19.23-2.27-12.41-2.45-14.23-6.42-22.77-13.73-8.79-17.84-7.8-38.52-8-58Z"/>
    <path class="cls-50" d="M192.08,319.18c2.66,5.1,4.74,10.17,8,15,5.1,7.55,12.96,17.66,19.03,24.47,1.79,2.01,3.71,4.06,5.97,5.53.26.39.73.65,1,1,3.71,4.9,9.26,9.55,13.98,13.52,3.91,3.29,8.51,7.11,13.02,9.48.32.67.64,1.35,1,2,.49.89,1.35,2.27,2,3-28.84-17.3-50.85-44.09-66.99-73.52l2.99-.48Z"/>
    <path class="cls-29" d="M200.08,334.18c1.36-1.83,4.72,2.37,5.34,3.12,5.43,6.49,9.43,12.67,15.66,18.88,1.28,1.93,2.99,6.52,4,8-2.27-1.47-4.19-3.52-5.97-5.53-6.06-6.82-13.93-16.92-19.03-24.47Z"/>
    <path class="cls-47" d="M144.08,239.18h1c2.61,5.1,5.49,9.12,8,14,2.13,4.13,3.82,8.8,5.26,13.24,8.97,27.65,13.27,49,28.87,73.12,21.44,33.16,51.35,59.4,85.2,77.81,8.83,4.8,17.77,8.45,26.35,12.65,25.22,12.35,23.98,47.07,24.32,71.18.22,15.82-.18,31.68-.02,47.51.02,1.69-.64,4.45,1.02,5.49,0,21.47,3.37,72.53-4,90-2.43,5.76-4.55,7.74-10,11-24.32,2.05-48.61,1.77-73,2-16.65.16-33.35-.04-50,0-38.45.1-76.93.02-115.39-.11-9.04-1.62-16.96-6.82-19.61-15.89v-48c0,.13.99,1.13,1.04,2.42.25,6.17-.27,12.41-.03,18.58l6.55-.87,3.12-6.24,5.29.11,1.17-8.87,6.93-.56,1.85-6.14c8.76,1.2,6.46-5.13,9.49-7.51,1.64-1.29,4.95-.62,6.08-2.92.75-1.52.16-3.46,1.04-5,.41-.72,2.21-.7,2.47-1.7.72-2.7-.35-8.36-.01-11.79,1.04-10.58,4.87-17.77,11.99-25.51,2.43-2.65,4.78-5.2,8-6.51l-2.02-.99v-2s2.8-2.19,2.8-2.19l2.22-9.32c2.25,2.92,6.17,4.76,8.92,1.37-1.34-4.85-1.17-10.74-2.36-15.43-1.81-7.17-11.92-34.59-15.36-40.64s-11.83-6.72-16.66-2.26l-11.54,32.96c.28-.97.03-2.55.45-4,1.42-4.9,3.95-10.12,5.1-14.95.24-1.01,1.32-3.27-.54-3.04-1.51,3.2-2.08,7.09-3.27,10.23-.52,1.37-1.99,2.13-2.48,3.52-1,2.86-1.99,12-3.17,13.65-.68.96-2.51.11-3.13,1.24-2.23,4.06-.32,12.24-3.47,16.34-1.62-2.9,3.11-7.98-1.98-8.99-1.31,4.07-3.9,4.78-6.01,7-3.27,3.44-5.52,8.67-11.49,8-.13-4.16.16-8.38,0-12.55-.08-1.92,1.03-4.01-2-3.45,0-36.14.4-72.36.02-108.51-.02-1.69.64-4.45-1.02-5.49.13-17.81.16-35.25,1-53,.25-5.19-.78-12.27,0-17,3.55-.54,2.91-4.95,7.82-4.17l2.11-7.39,6.63-1.37.56-7.94c8.21.04,6.73-5.47,9.1-7.91.76-.78,2.67-.61,3.53-1.45,1.13-1.11,1.37-4.33,3.72-5.87s4.57,1.07,6.57-.32c1.34-1.34,2.07-6.62,3.19-7.35.9-.59,2.83-.07,4.34-1.14s1.79-3.94,2.95-5.07c1.51-1.47,4.2-1.35,6.02-2.98.45-.41,7.57-8.55,7.93-9.07,1.06-1.54,1.53-4.91,2.48-5.52,1.39-.89,3.63,0,4.83-.66,1.87-1.03,2.78-9.35,10.08-6.92l2.27-6.73,8.86-.14ZM146.88,459.34c-4.33-2.46-8.34-2.82-13.06-1.17l-1.3,1.94c4.11,13.94-1.45,31.31,3.51,44.62,5.82,15.64,28.86,20.87,39.04,6.95,8.81-12.04,3.64-37.39,4.87-51.86-.71-2.13-11.35-3.9-12.7.03-1,2.92-.19,16.52-.2,20.88-.02,6.42,1.41,11.51-.2,18.72-1.81,8.12-9.3,12.34-15.8,6.28-8.48-7.9-3.66-35.47-4.15-46.39ZM214.08,515.68v-46.5c3.44-.44,12.43,1.1,14.76-1.24,1.62-1.63,1.64-7.29.32-9.12-3.08-4.31-36.68.67-43.42-.68-1.7.39-2.57,9.24-1.02,10.09,3.43,2.04,15.14-.69,16.22,2.59l-.72,47.22c.78,1.25,10.77,2.04,12.36.14.31-.8,1.36-1.84,1.5-2.5ZM229.41,480.46c-2.93,6.48,3.09,23.88,7.23,29.66,7.37,10.28,22.37,12.57,33.14,6.27,19.57-11.44,16.53-56.38-8.2-59.21-15.42-1.77-24.35,2.91-29.81,17.2-1.02,2.67-1.34,3.8-2.37,6.08ZM152.08,602.18c-2.78-.34-2.54.74-1.03,2.54,1.79,2.14,8.94,8.2,11.53,8.36,4.16.27,3.43-2.83,4.57-5.13.6-1.22,3.35-1.61,1.94-5.77,2.35-.06,2.61,1.96,5.34,1.95.86,0,6.14-1.1,6.7-1.46,1.11-.7.68-1.99.96-2.5,2.19-3.94,4.82-13.98,6.5-16,1.88-2.26,20.24-.48,24.37-.86,2.1,3.33,2.81,13.63,5.44,15.55,2.11,1.54,14.09,2.39,14.52-.16l-24.17-64.19c-3.32-3.31-15.97-3.87-18.46.35l-21.19,63.31c-1.58-.73-2.38-1.31-4,0-1.32-1.59-8.65-7.03-8.76-8.49,20.35-25.91,2.24-64.19-32.5-58.27-12.68,2.16-22.7,16.89-23.78,29.22-1.46,16.7,2.5,30.88,19.05,37.02,6.05,2.24,10.94,3.22,17.54,2.57,3.49-.34,8.66-3.4,10.74-2.9,1.95.47,3.42,3.69,4.7,4.85ZM279.08,548.18c4,3.71,8.55,13.35,15.52,7.02,7.65-6.95-9.23-19.92-15.85-22.19-43.82-15.05-58.94,54.01-20.67,65.67,11.06,3.37,24.71,1.57,33.04-6.96,4.22-4.32,9.86-13.5.99-16.13-6.35-1.89-7.37,4.47-10.5,7.63-8.17,8.23-22.43,5.81-27.98-4.13-.64-1.15-.31-2.25-.56-2.9.1-1.53-.48-3.37,1.29-.8,5.01,7.27,7.25,10.9,17.22,9.8,11.22-1.24,8.25-10.52,18.49-12.01-2.02-2.9-1.54-7.12.52-9.97,1.1-1.53,5.07-.9,4.47-4.02-7.8,2.4-10.77-1.76-14.96-7.54-.47-.65-2.96-3.07-1.04-3.46Z"/>
    <path class="cls-4" d="M132.08,221.18c-7.87-3.97-6.55,5.93-9.5,9.07-.81.86-10.37.56-7.49,6.9-7.65-1.82-12.94,14-14.66,15.12-3.82,2.47-13.77-.85-15.89,4.9-.42,1.13-.3,3.75-.51,3.95-.62.58-4.91-1.24-7.37,3.14-.71,1.28-.48,3.68-1.53,4.52s-4.3-1.53-7.35.35c-.46.28-7,7.19-7.37,7.88-1.43,2.69-.89,5.15-2.85,7.17-2.34.62-6.9-4.23-8.48-6-.14-20.73-.65-33.57,14.46-49.04,4.82-4.93,17.16-15.26,23.54-16.96,13.36-3.56,35.02-1.19,45,9Z"/>
    <path class="cls-116" d="M145.08,660.18c50,.35,99.96,2,150-1,1.99-.2,11.79-.64,10.53,2.98-1.16,1.04-1.7,3.33-3.19,3.85s-10.79.09-13.68.09c-7.97.02-14.28.81-21.66,1.07-9.48.33-19.06-.36-28.54-.04-46.08,1.54-92.66,4.84-139,3.08-11.16-.42-30.66-1.17-40.46-5.04l-4.99-14c4.54,4.64,9.13,7.27,15.44,9.05,25.18.05,50.38-.22,75.55-.05Z"/>
    <path class="cls-113" d="M132.08,221.18c4.43,4.53,10.15,12.43,13,18h-1l-8.5-10.98c-2.82,2.51-.12,6.88-4.02,8.97l-4.52-3.59c-3.14.72-2.68,4.21-3.95,5.11-1.8,1.28-8.43.72-10.06,1.94-1.22.9-.61,3.5-1.95,5.05-1.81,2.09-7.19,2.12-7.82,2.67-.82.7-.57,5.19-1.45,6.55-.82,1.27-5.36,2.44-6.45,3.54-1.18,1.2-2.11,5.21-3.41,7.09-3.95,5.69-5.53,3.56-10.13,4.87-2.8.8-5.4,2.85-8.63,2.87l.49,8.94c-3.14,1.13-8.65,5.9-10.47,8.59-1.45,2.15-1.26,5.17-3.55,7.45-1.65,1.65-4.91,2.04-5.44,3.56-1.01,2.89.42,9.18-.18,12.82-.45,2.7-2.52,3.95-2.95,6.55-.78,4.73.25,11.81,0,17-1.66-1.04-1-3.8-1.02-5.49-.23-18.23-.86-36.38-.98-54.51,1.58,1.77,6.14,6.62,8.48,6,1.96-2.02,1.42-4.48,2.85-7.17.37-.69,6.91-7.6,7.37-7.88,3.05-1.88,6.35.46,7.35-.35,1.05-.84.82-3.25,1.53-4.52,2.45-4.38,6.75-2.56,7.37-3.14.21-.2.1-2.83.51-3.95,2.12-5.75,12.07-2.43,15.89-4.9,1.72-1.11,7.02-16.94,14.66-15.12-2.88-6.35,6.68-6.04,7.49-6.9,2.95-3.14,1.63-13.04,9.5-9.07Z"/>
    <path class="cls-28" d="M83.08,492.18c-2.28,8.02-5.29,16.22-7.07,24.54-.18,3.92,4.03,4.64,7.07,4.46-2.57,1.29-3.99,1.23-7,1.01l4.01,2c-.3,7.39-3.41,7.91-7.01,12.48-4.17,5.29-6.19,5.96-9.46,9.54-3.04,3.33-3.01,8.36-10.54,3.46v-14.5h-.99c-.04,5.33.02,10.68-.01,16-.04,6.82-.09,13.68-.02,20.51.02,1.69-.64,4.45,1.02,5.49-.03,2.5-.99,5.63-1,9,0,2.33-.04,4.67,0,7v48c-.66-2.25-.81-2.39-1-5-3.01-40.86,0-89.28,0-131,3.03-.56,1.92,1.53,2,3.45.16,4.17-.12,8.38,0,12.55,5.98.67,8.23-4.57,11.49-8,2.11-2.22,4.71-2.93,6.01-7,5.09,1.01.36,6.09,1.98,8.99,3.15-4.1,1.24-12.28,3.47-16.34.62-1.13,2.45-.28,3.13-1.24,1.17-1.66,2.16-10.79,3.17-13.65.49-1.39,1.96-2.15,2.48-3.52,1.19-3.14,1.76-7.03,3.27-10.23,1.86-.23.79,2.03.54,3.04-1.15,4.83-3.68,10.05-5.1,14.95-.42,1.45-.18,3.03-.45,4Z"/>
    <path class="cls-2" d="M310.08,655.18c2.68-.55,2.77,1.41,1.01,2.51-2.08,1.29-10.32.23-13.59.45-1.29.09-2.27,1.03-2.42,1.04-50.04,3-100,1.35-150,1,.7-2.3,2.58-1.93,4.45-2.06,11.85-.8,25.48.08,37.55.06,14.82-.02,29.68.17,44.51.02,1.69-.02,4.45.64,5.49-1.02,24.39-.23,48.68.05,73-2Z"/>
    <path class="cls-65" d="M51.08,505.18c0,41.72-3.01,90.14,0,131-1.66-1.04-1-3.79-1.02-5.49-.99-79.73-.58-159.79.02-239.51,1.66,1.04,1,3.79,1.02,5.49.38,36.15-.02,72.37-.02,108.51Z"/>
    <path class="cls-135" d="M112.08,209.18c4.2,1.45,3,.56,6.28,1.18.74.14,12.95,5.82,13.65,6.4,1.6,1.33,1.85,3.7,3.57,5.43,1.9,1.9,5.93,2.74,6.98,4.02.75.91,3,7.59,4.16,9.84,3.07,5.91,6.69,9.13,6.36,17.14-2.51-4.88-5.39-8.9-8-14-2.85-5.57-8.57-13.47-13-18-9.98-10.19-31.64-12.56-45-9v-1c5.26-1.54,20.21-3.66,25-2Z"/>
    <path class="cls-51" d="M237.08,657.18c-1.04,1.66-3.79,1-5.49,1.02-14.83.16-29.69-.04-44.51-.02v-1c16.65-.04,33.35.16,50,0Z"/>
    <path class="cls-81" d="M112.08,209.18c1.78,0,3.98-1.67,5.51-1.61,2.9.11,15.26,7.68,17.85,9.75,3.4,2.71,13.57,11.85,16.07,14.93,9.8,12.07,2.97,21.51,9.15,32.85.66,1.22,2.51,3.12,3.93,3.13,2.87.03,1.37-3.91,4.48-3.06.14,7.62,3.93,14.3,6.3,21.21,1.08,3.15,1.18,6.71,2.31,9.69,2.17,5.74,6.83,11.02,8.41,17.1v-5.99c1.98,3.94,3.96,8.11,5.99,12l-2.99.48c16.14,29.43,38.15,56.22,66.99,73.52,7.22,8.06,30.35,16.9,40.87,22.63,6.59,3.59,13.18,8.95,20.13,11.37,2.21,2.18,3.38,3.13,5,6,12.12,21.42,13.13,52.56,13,77-.12,22.32,0,44.58,0,67-1.32.78-2.82,2.5-3-.48-.95-15.44-.08-30.69.05-45.98.17-19.25-.3-38.41.94-57.54-2.04,1.44-4.58,8.52-4.77,10.73-.23,2.72,1.56,4.98,1.54,6.97s-.69,5.19-.71,8.75c-.19,48.51-.37,96.69-1.36,144.91l-1.69,1.64-3.01-4-1.01,4.51-2-2.51c7.37-17.47,4-68.53,4-90,0-15.82.21-31.69.02-47.51-.02-1.69.64-4.45-1.02-5.49-.34-24.11.91-58.83-24.32-71.18-8.58-4.2-17.52-7.85-26.35-12.65-33.85-18.41-63.76-44.66-85.2-77.81-15.6-24.12-19.9-45.46-28.87-73.12-1.44-4.44-3.13-9.11-5.26-13.24.33-8.01-3.3-11.23-6.36-17.14-1.17-2.25-3.41-8.92-4.16-9.84-1.05-1.28-5.08-2.12-6.98-4.02-1.73-1.73-1.98-4.1-3.57-5.43-.7-.58-12.91-6.25-13.65-6.4-3.28-.63-2.08.27-6.28-1.18Z"/>
    <path class="cls-25" d="M337.08,624.18c-1.5,12.4-3.84,27.67-12.02,37.48-3.43,4.11-4.77,5.29-9.98,6.52.4-.51.63-1.69,1-2,23.04-19.28,19-60.92,19-89,0-22.42-.12-44.68,0-67,1.42,2.7,1-1.72,1-2.49.01-12.29-.89-24.27-1-36.51.02.2,1.08.81.97,1.51l1.03,151.49Z"/>
    <path class="cls-162" d="M322.08,433.18c2.66.38,3.06,2.67,5,4,4.07,13.33,6.28,20,8,34,.11,12.23,1.01,24.22,1,36.51,0,.77.43,5.19-1,2.49.13-24.44-.88-55.58-13-77Z"/>
    <path class="cls-10" d="M254.08,390.18c7.5,3.82,14.57,8.52,21.98,12.52,13,7.02,30.54,14.13,41.02,24.48-6.96-2.42-13.55-7.78-20.13-11.37-10.52-5.73-33.65-14.57-40.87-22.63-.65-.73-1.51-2.11-2-3Z"/>
    <path class="cls-120" d="M320.08,644.18l2,2.51,1.01-4.51,3.01,4,1.69-1.64c.98-48.22,1.17-96.4,1.36-144.91.01-3.56.69-6.76.71-8.75s-1.77-4.26-1.54-6.97c.19-2.21,2.73-9.29,4.77-10.73-1.25,19.13-.77,38.29-.94,57.54-.13,15.29-1,30.54-.05,45.98.18,2.98,1.68,1.26,3,.48,0,28.08,4.04,69.72-19,89l-49,1c7.38-.26,13.69-1.05,21.66-1.07,2.89,0,12.2.42,13.68-.09s2.03-2.81,3.19-3.85c1.25-3.62-8.55-3.18-10.53-2.98.15,0,1.13-.95,2.42-1.04,3.26-.22,11.5.84,13.59-.45,1.77-1.1,1.68-3.06-1.01-2.51,5.45-3.26,7.57-5.24,10-11Z"/>
    <path class="cls-165" d="M120.08,516.18l-2.22,9.32-2.81,2.19v2s2.03.99,2.03.99c-3.22,1.31-5.56,3.86-8,6.51l-9-.53c-1.17,3.1-5.63,4.43-7.06,6.97-1.17,2.07-.63,4.43-1.42,5.6-.59.88-2.52.63-3.58,1.65-1.61,1.55-2.06,5.86-3.44,7.3s-4.44,1.19-5.99,3.01c-1.27,1.49-1.05,4.32-2.14,5.08-1.69,1.18-5.2.42-6.21,1.06-1.17.75-.73,5.68-1.61,6.9-1.03,1.42-4.2.49-6.13,1.87-1.15.82-1.65,3.26-2.86,4.14-1.55,1.12-4.25.72-5.13,1.89-1.07,1.44.94,4.78-2.44,4.04,0-3.37.97-6.5,1-9,.08-6.82.09-13.69.02-20.51-.02-1.69.64-4.45-1.02-5.49.03-5.32-.03-10.67.01-15.99h.99s0,14.49,0,14.49c7.53,4.89,7.5-.14,10.54-3.46,3.28-3.58,5.29-4.25,9.46-9.54,3.6-4.57,6.71-5.09,7.01-12.48l-4.01-2c3.01.22,4.43.28,7-1.01,6.1-3.07,7.04-16.18,11.5-17,3.53-.65,16.46-.2,19.45,1.56,2.47,1.45,3.97,7.74,6.05,10.45Z"/>
    <path class="cls-18" d="M253.08,576.18c.25.65-.09,1.75.56,2.9,5.55,9.94,19.81,12.37,27.98,4.13,3.13-3.16,4.15-9.52,10.5-7.63,8.86,2.64,3.22,11.81-.99,16.13-8.33,8.53-21.99,10.33-33.04,6.96-38.26-11.67-23.14-80.73,20.67-65.67,6.61,2.27,23.5,15.24,15.85,22.19-6.97,6.33-11.52-3.3-15.52-7.02-1.84-1.71-2.94-3.2-5.73-3.77-19.32-3.93-25.99,16.74-20.27,31.77Z"/>
    <path class="cls-18" d="M229.41,480.46c1.03-2.28,1.35-3.41,2.37-6.08,5.46-14.29,14.39-18.97,29.81-17.2,24.73,2.83,27.78,47.77,8.2,59.21-10.77,6.3-25.78,4.01-33.14-6.27-4.14-5.78-10.16-23.18-7.23-29.66ZM246.08,474.18c-4.7,8.02-5.11,27.91,4.63,32.87,18.53,9.45,25.67-24.01,13.37-35.87-6.09-5.88-13.89-4.01-18,3Z"/>
    <path class="cls-161" d="M83.08,492.18l11.54-32.96c4.83-4.46,13.26-3.73,16.66,2.26s13.55,33.47,15.36,40.64c1.19,4.69,1.01,10.59,2.36,15.43-2.75,3.39-6.67,1.55-8.92-1.37-2.09-2.71-3.58-9-6.05-10.45-3-1.76-15.93-2.21-19.45-1.56-4.46.83-5.39,13.94-11.5,17-3.04.18-7.25-.54-7.07-4.46,1.78-8.32,4.78-16.52,7.07-24.54ZM109.08,494.18c.96-.97-3.83-14.44-4.95-16.55-.56-1.05-.88-2.84-2.54-2.44-1.78.43-6.85,17.64-5.52,19h13.01Z"/>
    <path class="cls-112" d="M146.88,459.34c.49,10.91-4.33,38.49,4.15,46.39,6.5,6.06,13.99,1.84,15.8-6.28,1.61-7.2.18-12.3.2-18.72.01-4.36-.8-17.95.2-20.88,1.35-3.93,11.99-2.16,12.7-.03-1.23,14.47,3.94,39.82-4.87,51.86-10.18,13.92-33.22,8.69-39.04-6.95-4.95-13.31.6-30.68-3.51-44.62l1.3-1.94c4.72-1.65,8.73-1.29,13.06,1.17Z"/>
    <path class="cls-73" d="M109.08,537.18c-7.12,7.75-10.95,14.94-11.99,25.51-.34,3.42.73,9.08.01,11.79-.26,1-2.07.98-2.47,1.7-.88,1.55-.29,3.48-1.04,5-1.14,2.3-4.44,1.63-6.08,2.92-3.04,2.38-.74,8.71-9.49,7.51l-1.85,6.14-6.93.56-1.17,8.87-5.29-.11-3.12,6.24-6.55.87c-.24-6.16.28-12.41.03-18.58-.05-1.29-1.04-2.29-1.04-2.42-.04-2.33,0-4.67,0-7,3.38.74,1.36-2.6,2.44-4.04.87-1.17,3.58-.77,5.13-1.89,1.21-.88,1.71-3.33,2.86-4.14,1.93-1.37,5.1-.45,6.13-1.87.88-1.21.44-6.14,1.61-6.9,1-.65,4.51.12,6.21-1.06,1.09-.76.87-3.59,2.14-5.08,1.55-1.82,4.55-1.51,5.99-3.01s1.83-5.75,3.44-7.3c1.06-1.02,2.99-.77,3.58-1.65.79-1.17.26-3.53,1.42-5.6,1.43-2.54,5.89-3.88,7.06-6.97l9,.53Z"/>
    <path class="cls-14" d="M144.08,239.18l-8.86.14-2.27,6.73c-7.29-2.43-8.21,5.88-10.08,6.92-1.21.67-3.45-.22-4.83.66-.96.61-1.42,3.98-2.48,5.52-.36.52-7.48,8.66-7.93,9.07-1.82,1.63-4.51,1.51-6.02,2.98-1.16,1.13-1.41,3.98-2.95,5.07s-3.44.55-4.34,1.14c-1.12.73-1.85,6.01-3.19,7.35-2,1.39-4.17-1.25-6.57.32s-2.6,4.76-3.72,5.87c-.86.84-2.77.67-3.53,1.45-2.38,2.44-.89,7.95-9.1,7.91l-.56,7.94-6.63,1.37-2.11,7.39c-4.91-.78-4.28,3.63-7.82,4.17.43-2.6,2.51-3.85,2.95-6.55.6-3.64-.83-9.93.18-12.82.53-1.52,3.79-1.91,5.44-3.56,2.29-2.29,2.1-5.3,3.55-7.45,1.82-2.69,7.33-7.45,10.47-8.59l-.49-8.94c3.22-.01,5.83-2.07,8.63-2.87,4.61-1.31,6.18.83,10.13-4.87,1.3-1.87,2.23-5.89,3.41-7.09,1.09-1.11,5.63-2.27,6.45-3.54.88-1.36.64-5.85,1.45-6.55.63-.55,6.01-.58,7.82-2.67,1.34-1.55.74-4.14,1.95-5.05,1.63-1.22,8.26-.66,10.06-1.94,1.27-.91.81-4.39,3.95-5.11l4.52,3.59c3.89-2.09,1.2-6.46,4.02-8.97l8.5,10.98Z"/>
    <path class="cls-77" d="M279.08,548.18c-1.92.39.57,2.81,1.04,3.46,4.19,5.79,7.15,9.94,14.96,7.54.6,3.11-3.37,2.49-4.47,4.02-2.06,2.85-2.55,7.07-.52,9.97-10.24,1.48-7.27,10.77-18.49,12.01-9.97,1.1-12.21-2.53-17.22-9.8-1.77-2.57-1.19-.72-1.29.8-5.72-15.03.95-35.7,20.27-31.77,2.79.57,3.89,2.06,5.73,3.77Z"/>
    <path class="cls-154" d="M214.08,515.68c-.14.66-1.19,1.7-1.5,2.5-1.59,1.9-11.58,1.11-12.36-.14l.72-47.22c-1.07-3.28-12.79-.55-16.22-2.59-1.54-.85-.68-9.7,1.02-10.09,6.74,1.35,40.34-3.63,43.42.68,1.31,1.84,1.3,7.5-.32,9.12-2.33,2.34-11.33.79-14.76,1.24v46.5Z"/>
    <path class="cls-5" d="M169.08,598.18c4.68,2.15,6.66,4.82,13,2-.28.51.15,1.81-.96,2.5-.56.35-5.84,1.46-6.7,1.46-2.72,0-2.99-2.01-5.34-1.95,1.41,4.17-1.33,4.55-1.94,5.77-1.14,2.3-.42,5.39-4.57,5.13-2.59-.17-9.74-6.22-11.53-8.36-1.51-1.8-1.75-2.88,1.03-2.54,2.67,2.41,8.18,8.77,11.39,8.07.45-.1,3.57-6.62,3.63-7.66.1-1.78-.97-3.15-2.02-4.41,1.62-1.31,2.42-.73,4,0Z"/>
    <path class="cls-123" d="M324.08,554.18c-1.66-1.04-1-3.8-1.02-5.49-.17-15.83.24-31.69.02-47.51,1.66,1.04,1,3.79,1.02,5.49.2,15.83-.02,31.7-.02,47.51Z"/>
    <path class="cls-73" d="M53.08,577.18c-1.66-1.04-1-3.8-1.02-5.49-.07-6.83-.02-13.69.02-20.51,1.66,1.04,1,3.8,1.02,5.49.07,6.83.06,13.7-.02,20.51Z"/>
    <path class="cls-170" d="M264.08,471.18c-.53,5.32,3.74,10.03,3.93,15.66.22,6.67-2.35,18.77-10.55,19.3-15.9,1.04-13.85-21.93-11.38-31.96,4.11-7.01,11.91-8.88,18-3Z"/>
    <path class="cls-168" d="M246.08,474.18c-2.47,10.03-4.53,33,11.38,31.96,8.2-.53,10.78-12.64,10.55-19.3-.19-5.62-4.46-10.33-3.93-15.66,12.3,11.86,5.16,45.32-13.37,35.87-9.74-4.97-9.32-24.86-4.63-32.87Z"/>
    <path class="cls-3" d="M109.08,494.18h-13.01c-1.33-1.35,3.74-18.56,5.52-18.99,1.66-.4,1.98,1.39,2.54,2.44,1.12,2.11,5.91,15.58,4.95,16.55Z"/>
    <path class="cls-31" d="M133.08,585.18c.41,3.13-.94,1.82-2.84,1.35-12.78-3.16-15.86-12.19-13.92-24.61,3.02-19.29,25.01-21.97,31.23-3.71,2.4,7.03.9,11-.48,17.97-3.69-2.28-5.23-6.4-9.99-7s-9.14.43-9.95,5.57c-.98,6.22,2.16,7,5.95,10.43Z"/>
    <g>
      <path class="cls-18" d="M169.08,598.18l21.19-63.31c2.49-4.22,15.14-3.66,18.46-.35l24.17,64.19c-.44,2.55-12.41,1.69-14.52.16-2.63-1.92-3.35-12.22-5.44-15.55-4.13.37-22.48-1.41-24.37.86-1.68,2.02-4.31,12.07-6.5,16-6.34,2.82-8.32.15-13-2ZM200.58,549.2c-1.13,0-7.82,18.81-7.4,20.32.99,3.51,11.45,3.48,13.95,1.16,1.74-1.62-2.04-11.39-3.03-14.01-.52-1.37-2.62-7.46-3.52-7.46Z"/>
      <path class="cls-164" d="M200.58,549.2c.89,0,3,6.09,3.52,7.46.99,2.63,4.77,12.4,3.03,14.01-2.5,2.33-12.96,2.36-13.95-1.16-.42-1.51,6.27-20.32,7.4-20.32ZM196.08,570.18c2.28-.25,8.05,1.1,8.92-1.64-.15-2.79-2.29-12.33-4.43-13.35-1.84-.88-1.46,1.3-1.75,2.2-.6,1.84-3.38,12.15-2.74,12.78Z"/>
      <path class="cls-61" d="M196.08,570.18c-.64-.64,2.14-10.94,2.74-12.78.29-.91-.09-3.08,1.75-2.2,2.14,1.02,4.28,10.56,4.43,13.35-.87,2.73-6.64,1.38-8.92,1.64Z"/>
    </g>
    <g>
      <path class="cls-18" d="M165.08,598.18c1.04,1.26,2.11,2.63,2.02,4.41-.06,1.05-3.18,7.56-3.63,7.66-3.21.7-8.71-5.66-11.39-8.07-1.29-1.16-2.75-4.38-4.7-4.85-2.08-.5-7.25,2.56-10.74,2.9-6.59.65-11.49-.33-17.54-2.57-16.56-6.14-20.51-20.32-19.05-37.02,1.08-12.33,11.09-27.06,23.78-29.22,34.74-5.92,52.85,32.36,32.5,58.27.11,1.46,7.44,6.9,8.76,8.49ZM131.08,572.18c8.85-4.57,9.81,6.49,16.95,6.95,6.2-11.09,3.18-28.94-9.25-34.15-22.94-9.62-33.13,26.59-19.04,39.04,4.31,3.81,20.53,9.22,15.35.15-2.48-4.33-9.39-4.94-4-12Z"/>
      <path class="cls-41" d="M135.08,584.18c5.19,9.07-11.03,3.66-15.35-.15-14.09-12.45-3.9-48.66,19.04-39.04,12.43,5.21,15.45,23.06,9.25,34.15-7.13-.46-8.1-11.53-16.95-6.95,2.22-2.9,3.38-1.15,6-3,4.76.6,6.3,4.71,9.99,7,1.38-6.97,2.88-10.94.48-17.97-6.23-18.26-28.21-15.58-31.23,3.71-1.94,12.42,1.14,21.44,13.92,24.61,1.9.47,3.25,1.79,2.84-1.35.49.44,1.01,1.29,1.02,1.99h.97s.01-2.99.01-2.99Z"/>
      <path class="cls-6" d="M137.08,569.18c-2.62,1.85-3.78.1-6,3-5.39,7.06,1.52,7.67,4,12v2.99s-.98,0-.98,0c0-.7-.53-1.55-1.02-1.99-3.79-3.43-6.93-4.22-5.95-10.43.81-5.14,5.37-6.14,9.95-5.57Z"/>
    </g>
  </g>
</svg>